<svg xmlns="http://www.w3.org/2000/svg" width="24" height="25" viewBox="0 0 24 25">
  <path fill="#FFF" fill-rule="evenodd" d="M0,12 C0,5.38 5.38,0 12,0 C18.63,0 24,5.38 24,12 C24,18.62 18.62,24 12,24 C5.38,24 0,18.62 0,12 Z M1.88235294,11.8823529 C1.88235294,17.4023529 6.36235294,21.8823529 11.8823529,21.8823529 C17.4023529,21.8823529 21.8823529,17.4023529 21.8823529,11.8823529 C21.8823529,6.36235294 17.4023529,1.88235294 11.8823529,1.88235294 C6.36235294,1.88235294 1.88235294,6.36235294 1.88235294,11.8823529 Z M10.1176471,17.1764706 L10.1176471,7.05882353 L17.1764706,12.1176471 L10.1176471,17.1764706 Z" transform="translate(0 .796)"/>
</svg>
