<svg width="26" height="26" viewBox="0 0 26 26" fill="none" xmlns="http://www.w3.org/2000/svg">
<path fill-rule="evenodd" clip-rule="evenodd" d="M6 12V10H13L11 12H6ZM6 6H18L16 8H6V6ZM18.95 11C19.6585 11 20.3454 11.0937 21 11.2674V2.0007C21 1.4475 20.5553 1 20.0066 1H19L18 2H17V1H16L15 2H14V1H13L12 2H11V1H10L9 2H8V1H7L6 2H5V1H3.9934C3.4449 1 3 1.448 3 2.0007V23.9993C3 24.5525 3.4447 25 3.9934 25H5L6 24H7V25H8L9 24H10V25H11L12 24H12.7116C11.6107 22.6293 10.95 20.8908 10.95 19C10.95 14.5888 14.5388 11 18.95 11V11ZM21.5 19.525H19.475V22.025H18.475V19.525H15.975V18.525H18.475V16.025H19.475V18.525H22.5L21.5 19.525ZM19 13C15.6863 13 13 15.6863 13 19C13 22.3137 15.6863 25 19 25C22.3137 25 25 22.3137 25 19C25 15.6863 22.3137 13 19 13V13Z" fill="white"/>
</svg>
