<?xml version="1.0" encoding="UTF-8"?><svg id="b" xmlns="http://www.w3.org/2000/svg" width="494.6222" height="494.6222" viewBox="0 0 494.6222 494.6222"><defs><style>.d{opacity:.13;}.e{fill:#fff;}.f{fill:#00b4bf;}</style></defs><g id="c"><circle class="f" cx="247.3111" cy="247.3111" r="247.3111"/><path class="d" d="M393.156,47.5312C39.156,32.3412,27.526,357.9412,27.446,360.3012,10.066,326.4712,.266,288.1212,.266,247.4812,.266,110.8912,110.996,.1712,247.576,.1712c54.42,0,104.74,17.58,145.58,47.36Z"/><path class="e" d="M202.8666,217.3802l36.7397,63.6573c4.8275,8.3644,12.7285,8.3644,17.5588,.0033l36.7602-63.6477c4.8288-8.3628,.8803-15.2059-8.7788-15.2076l-11.263-.0015,.0096-66.9074c.0016-14.0755-11.4065-25.4871-25.4807-25.4895-14.0754-.0021-25.4874,11.4064-25.4899,25.4814l-.0092,66.9074-11.2655-.0016c-9.6571-.0016-13.6084,6.8415-8.7812,15.2059Z"/><rect class="e" x="178.5627" y="317.8012" width="141.5" height="42.5" rx="12" ry="12"/><path class="e" d="M156.7255,308.3056h45.6689c4.366,0,7.9106,3.5446,7.9106,7.9106v26.6789c0,4.3659-3.5446,7.9105-7.9105,7.9105h-45.669c-4.3659,0-7.9105-3.5446-7.9105-7.9105v-26.679c0-4.3659,3.5446-7.9105,7.9105-7.9105Z" transform="translate(509.1156 149.9956) rotate(90)"/><path class="e" d="M297.2277,308.3056h45.6689c4.366,0,7.9106,3.5446,7.9106,7.9106v26.6789c0,4.3659-3.5446,7.9105-7.9105,7.9105h-45.669c-4.3659,0-7.9105-3.5446-7.9105-7.9105v-26.679c0-4.3659,3.5446-7.9105,7.9105-7.9105Z" transform="translate(649.6178 9.4934) rotate(90)"/></g></svg>