<svg width="173" height="172" viewBox="0 0 173 172" fill="none" xmlns="http://www.w3.org/2000/svg">
<path d="M166.534 61.1626C170.852 48.6936 172.796 35.5263 172.266 22.3415L172.231 21.3643C172.208 20.9382 172.028 20.5358 171.725 20.2351C171.422 19.9345 171.018 19.757 170.592 19.7371C157.194 19.3832 143.852 21.5855 131.278 26.2263L131.211 26.25C110.54 33.8195 93.0173 48.1252 81.4646 66.8638L75.5072 76.5524L63.167 76.119C58.8411 75.9667 54.5302 76.7071 50.503 78.294C46.4758 79.8809 42.8186 82.2803 39.7593 85.3426L21.4185 103.683C20.9754 104.126 20.6887 104.701 20.6017 105.321C20.5147 105.941 20.6322 106.573 20.9364 107.12C21.2406 107.668 21.7149 108.101 22.2875 108.355C22.8601 108.608 23.4997 108.668 24.1095 108.526L49.3257 102.667C51.0564 102.264 52.8702 102.42 54.5069 103.112L58.2144 104.688L53.3643 112.568C53.2155 112.814 53.1529 113.103 53.1865 113.388C53.22 113.673 53.3477 113.939 53.5494 114.144L55.9529 116.544L53.4194 119.073C53.1981 119.295 53.0737 119.595 53.0737 119.908C53.0737 120.222 53.1981 120.522 53.4194 120.744L54.6408 121.965C52.197 124.141 50.0851 126.663 48.3722 129.451L41.8869 140.007C40.9597 141.518 40.5594 143.294 40.7486 145.057C40.9378 146.82 41.7057 148.471 42.9325 149.751C44.1592 151.031 45.7756 151.869 47.529 152.134C49.2823 152.398 51.0739 152.074 52.6235 151.212L62.0402 145.972C65.499 144.042 68.5885 141.514 71.1653 138.505L72.4182 139.758C72.5281 139.869 72.6585 139.956 72.8022 140.016C72.9459 140.075 73.0999 140.106 73.2555 140.106C73.4111 140.106 73.5651 140.075 73.7088 140.016C73.8525 139.956 73.9829 139.869 74.0928 139.758L76.6223 137.229L76.6971 137.304L77.7373 138.348C77.9361 138.545 78.1931 138.672 78.4701 138.71C78.5383 138.716 78.6068 138.716 78.675 138.71C78.8865 138.706 79.0936 138.649 79.2778 138.545L87.6937 133.86L89.4786 138.072C90.1721 139.708 90.3293 141.522 89.9277 143.253L84.0689 168.469C83.9276 169.079 83.9886 169.718 84.2427 170.289C84.4968 170.861 84.9301 171.335 85.4771 171.638C86.0242 171.942 86.6552 172.059 87.2748 171.972C87.8944 171.885 88.4688 171.599 88.9112 171.156L107.252 152.816C110.315 149.755 112.715 146.095 114.301 142.066C115.887 138.037 116.626 133.724 116.472 129.396L116.078 118.049L121.401 115.082C135.591 107.181 147.589 95.8702 156.313 82.1709C156.613 81.698 156.912 81.2252 157.204 80.7485C159.387 77.1866 161.345 73.4915 163.067 69.6849C164.249 67.0372 165.431 64.3461 166.388 61.5802C166.435 61.462 166.49 61.2729 166.534 61.1626Z" fill="url(#paint0_linear)"/>
<path d="M95.1403 88.14L95.9047 109.739C96.0596 114.067 95.3212 118.379 93.7357 122.409C92.1501 126.438 89.7513 130.098 86.689 133.159L68.3481 151.5C67.9059 151.941 67.332 152.227 66.713 152.314C66.094 152.401 65.4636 152.284 64.9168 151.981C64.3701 151.678 63.9368 151.206 63.6822 150.635C63.4277 150.064 63.3658 149.426 63.5059 148.816L69.3647 123.6C69.7731 121.859 69.6158 120.033 68.9155 118.388L63.6359 105.921L95.1403 88.14Z" fill="#2DCCCD"/>
<path d="M56.9025 107.801C53.9353 102.875 49.7894 98.764 44.8382 95.8389C37.761 98.4371 31.7632 103.34 27.8093 109.759L21.3241 120.306C20.3804 121.843 19.9819 123.652 20.1928 125.443C20.4036 127.234 21.2116 128.901 22.4864 130.176C23.7196 131.41 25.3217 132.208 27.0496 132.449C28.7774 132.69 30.5367 132.361 32.0606 131.512L41.4734 126.272C48.7214 122.232 54.2176 115.652 56.9025 107.801Z" fill="#F8CD50"/>
<path d="M64.1874 57.191L42.5882 56.4267C38.2609 56.2718 33.9481 57.0101 29.9187 58.5957C25.8894 60.1813 22.2299 62.58 19.1686 65.6424L0.843556 83.9832C0.401166 84.4256 0.11486 85.0001 0.0279366 85.6196C-0.0589864 86.2392 0.0581998 86.8702 0.361775 87.4173C0.665349 87.9644 1.1388 88.3977 1.71053 88.6518C2.28226 88.9058 2.92118 88.9668 3.53066 88.8255L28.7469 82.9667C30.4826 82.5605 32.3025 82.7164 33.9438 83.4119L46.41 88.6916L64.1874 57.191Z" fill="#2DCCCD"/>
<path d="M151.703 2.64127L151.668 1.66414C151.645 1.23801 151.465 0.835597 151.162 0.534936C150.859 0.234275 150.455 0.0567926 150.029 0.0369042C136.631 -0.317711 123.288 1.88605 110.715 6.53008C125.159 15.1055 137.268 27.1072 145.971 41.4742C150.288 29.0011 152.233 15.8299 151.703 2.64127Z" fill="#2DCCCD"/>
<path d="M145.904 41.4427C137.236 27.051 125.123 15.0422 110.656 6.4986C89.9779 14.086 72.4531 28.4092 60.9017 47.1637L32.8014 92.868C32.6526 93.1139 32.59 93.4024 32.6236 93.6878C32.6571 93.9732 32.7848 94.2393 32.9865 94.444L57.1744 118.632C57.3736 118.829 57.6315 118.957 57.9092 118.995C58.187 119.033 58.4697 118.981 58.715 118.845L100.83 95.4133C122.007 83.6104 138.064 64.3843 145.904 41.4427Z" fill="#1464A5"/>
<path d="M114.727 9.06354L55.0903 116.563L57.1746 118.648C57.3738 118.845 57.6317 118.972 57.9094 119.011C58.1872 119.049 58.4699 118.996 58.7152 118.86L100.83 95.4133C122.009 83.6085 138.066 64.3793 145.904 41.4348C138.075 28.4397 127.419 17.3754 114.727 9.06354Z" fill="url(#paint1_linear)"/>
<path d="M103.954 66.8048C114.132 66.8048 122.382 58.5545 122.382 48.3772C122.382 38.2 114.132 29.9497 103.954 29.9497C93.7771 29.9497 85.5269 38.2 85.5269 48.3772C85.5269 58.5545 93.7771 66.8048 103.954 66.8048Z" fill="#D4EDFC"/>
<path d="M103.954 63.6724C112.401 63.6724 119.249 56.8245 119.249 48.3772C119.249 39.9299 112.401 33.082 103.954 33.082C95.5066 33.082 88.6587 39.9299 88.6587 48.3772C88.6587 56.8245 95.5066 63.6724 103.954 63.6724Z" fill="#49A5E6"/>
<path opacity="0.5" d="M103.954 33.0859C100.559 33.086 97.2603 34.2157 94.5779 36.2971C91.8955 38.3785 89.9818 41.2933 89.1385 44.5821C88.2952 47.8709 88.5701 51.3469 89.92 54.4623C91.2699 57.5776 93.618 60.1553 96.5943 61.7891L111.2 34.9102C108.974 33.7098 106.484 33.0829 103.954 33.0859Z" fill="url(#paint2_linear)"/>
<path d="M35.3877 96.8613L56.0683 117.542L53.5386 120.072C53.317 120.293 53.0163 120.418 52.7028 120.418C52.3893 120.418 52.0887 120.293 51.867 120.072L32.858 101.063C32.6363 100.841 32.5118 100.54 32.5118 100.227C32.5118 99.9133 32.6363 99.6127 32.858 99.391L35.3877 96.8613Z" fill="#043263"/>
<defs>
<linearGradient id="paint0_linear" x1="87.7134" y1="48.3378" x2="138.965" y2="144.727" gradientUnits="userSpaceOnUse">
<stop stop-color="#192647" stop-opacity="0.5"/>
<stop offset="1" stop-color="#192647" stop-opacity="0"/>
</linearGradient>
<linearGradient id="paint1_linear" x1="145.908" y1="64.0467" x2="55.0903" y2="64.0467" gradientUnits="userSpaceOnUse">
<stop stop-color="#043263" stop-opacity="0.4"/>
<stop offset="1" stop-color="#043263" stop-opacity="0.1"/>
</linearGradient>
<linearGradient id="paint2_linear" x1="73.8958" y1="18.7797" x2="112.91" y2="57.7978" gradientUnits="userSpaceOnUse">
<stop stop-color="white" stop-opacity="0.5"/>
<stop offset="1" stop-color="white" stop-opacity="0"/>
</linearGradient>
</defs>
</svg>
