<svg width="136" height="136" viewBox="0 0 136 136" fill="none" xmlns="http://www.w3.org/2000/svg">
<path d="M135.93 76.4864C135.965 109.261 109.4 135.826 76.6245 135.861C43.8495 135.895 17.2845 109.33 17.25 76.5554C17.2155 43.7804 43.7805 17.2154 76.5555 17.1809C109.331 17.1464 135.896 43.7114 135.93 76.4864Z" fill="url(#paint0_linear)"/>
<path d="M118.714 59.34C118.714 92.1495 92.1147 118.68 59.4087 118.68C26.7027 118.68 0.0341797 92.046 0.0341797 59.34C0.0341797 26.634 26.6337 0 59.3397 0C92.0802 0 118.714 26.5305 118.714 59.34Z" fill="#FFCC28"/>
<path d="M59.3055 0C26.5995 0 0 26.634 0 59.34C0 82.1445 12.972 101.982 31.9125 111.918L87.285 7.0035C78.6945 2.3805 69.069 0 59.3055 0Z" fill="url(#paint1_linear)"/>
<path d="M44.2637 48.1619C54.2342 50.0594 64.4807 50.0594 74.4857 48.1619C65.1362 42.6764 53.5787 42.6764 44.2637 48.1619Z" fill="#CDEEFE"/>
<path d="M43.2282 30.567C45.9537 30.5325 48.6447 31.257 50.9907 32.637C51.4737 32.9475 52.1292 32.8095 52.4052 32.3265C52.5432 32.085 52.6122 31.809 52.5432 31.533C51.1632 26.3925 45.8847 23.322 40.7442 24.702C37.3977 25.599 34.8102 28.1865 33.9132 31.533C33.7752 32.085 34.1202 32.637 34.6722 32.775C34.9482 32.844 35.2242 32.8095 35.4657 32.637C37.8117 31.257 40.5027 30.5325 43.2282 30.567Z" fill="#003267"/>
<path d="M75.5202 30.567C78.2457 30.5325 80.9367 31.257 83.2827 32.637C83.7657 32.9475 84.4212 32.8095 84.6972 32.3265C84.8352 32.085 84.9042 31.809 84.8352 31.533C83.4552 26.3925 78.1767 23.322 73.0362 24.702C69.6897 25.599 67.1022 28.1865 66.2052 31.533C66.0672 32.085 66.4122 32.637 66.9642 32.775C67.2402 32.844 67.5162 32.8095 67.7577 32.637C70.1037 31.257 72.7602 30.5325 75.5202 30.567Z" fill="#003267"/>
<path d="M74.3476 48.1619C64.4116 50.0249 54.2686 50.0249 44.3326 48.1619C34.8106 53.6819 28.3936 64.3079 28.3936 76.5209V76.6244C28.3936 81.0404 32.8786 83.9729 36.9841 82.3859C51.4396 77.0729 67.2751 77.0729 81.7306 82.3859C85.8361 83.9729 90.2866 81.0059 90.3211 76.6244V76.5209C90.3211 64.3424 83.8696 53.7164 74.3476 48.1619Z" fill="#003267"/>
<path d="M92.4598 48.8173L85.8013 34.1893C85.5598 33.6373 84.9043 33.4303 84.3868 33.6718C84.1453 33.7753 83.9728 33.9478 83.8693 34.1893L77.2108 48.8173C76.5208 50.1973 76.1758 51.7153 76.2793 53.2678C76.5898 57.9943 80.6608 61.5478 85.3873 61.2373C90.1138 60.9268 93.6673 56.8558 93.3568 52.1293C93.2878 50.9908 92.9773 49.8523 92.4598 48.8173Z" fill="#00A7EC"/>
<path d="M92.46 48.8175L89.217 41.7104L79.7295 59.547C83.5245 62.3415 88.872 61.548 91.6665 57.753C93.633 55.1655 93.909 51.7155 92.46 48.8175Z" fill="url(#paint2_linear)"/>
<defs>
<linearGradient id="paint0_linear" x1="48.7265" y1="24.1162" x2="104.454" y2="128.926" gradientUnits="userSpaceOnUse">
<stop stop-color="#142649" stop-opacity="0.5"/>
<stop offset="1" stop-color="#142649" stop-opacity="0"/>
</linearGradient>
<linearGradient id="paint1_linear" x1="6.98232" y1="31.4717" x2="59.7756" y2="59.5398" gradientUnits="userSpaceOnUse">
<stop stop-color="white" stop-opacity="0.6"/>
<stop offset="1" stop-color="white" stop-opacity="0.2"/>
</linearGradient>
<linearGradient id="paint2_linear" x1="93.4088" y1="51.485" x2="79.764" y2="51.485" gradientUnits="userSpaceOnUse">
<stop stop-color="#003267" stop-opacity="0.4"/>
<stop offset="1" stop-color="#003267" stop-opacity="0"/>
</linearGradient>
</defs>
</svg>
