<?xml version="1.0" encoding="utf-8"?>
<!-- Generator: Adobe Illustrator 27.1.0, SVG Export Plug-In . SVG Version: 6.00 Build 0)  -->
<svg version="1.1" id="Logo" xmlns="http://www.w3.org/2000/svg" xmlns:xlink="http://www.w3.org/1999/xlink" x="0px" y="0px"
	 viewBox="0 0 383.44 135.84" style="enable-background:new 0 0 383.44 135.84;" xml:space="preserve">
<style type="text/css">
	.st0{fill:#00561F;}
	.st1{fill:#E30613;}
	.st2{fill:none;}
</style>
<g>
	<g>
		<path class="st0" d="M270.94,55.79c0,0-5.89,0-7.76,0c-1.87,0-3.3,0.47-4.79,2.18c-1.48,1.71-10.96,12.64-10.96,12.64V55.79
			h-10.76v37.86c0,1.18,0.97,2.15,2.15,2.15h8.61V77.66c0,0,8.07,12.62,9.48,14.83c1.42,2.22,2.82,3.31,6.05,3.31
			c3.23,0,8.84,0,8.84,0l-15.1-23.61L270.94,55.79L270.94,55.79z M225.4,55.79c0,0-23.34,0-23.97,0l0,0v36.43
			c0,1.99,1.97,3.58,4.04,3.58h19.93c1.18,0,2.15-0.97,2.15-2.15v-5.16H213.8c-0.89,0-1.62-0.74-1.62-1.63v-8.42h12.26v-7.31h-12.26
			V63.1h15.37v-5.16C227.55,56.76,226.58,55.79,225.4,55.79L225.4,55.79z M301.14,55.79c0,0-23.34,0-23.98,0l0,0v36.43
			c0,1.99,1.97,3.58,4.04,3.58h19.94c1.18,0,2.15-0.97,2.15-2.15v-5.16h-13.75c-0.89,0-1.61-0.74-1.61-1.63v-8.42h12.26v-7.31
			h-12.26V63.1h15.37v-5.16C303.29,56.76,302.32,55.79,301.14,55.79L301.14,55.79z M148.55,55.79h-10.76v37.86
			c0,1.18,0.97,2.15,2.15,2.15h8.61V55.79L148.55,55.79z M125.83,55.79c0,0-23.35,0-23.98,0l0,0v36.43c0,2.08,1.97,3.58,4.04,3.58
			h19.93c1.18,0,2.15-0.97,2.15-2.15v-5.16h-13.75c-0.89,0-1.62-0.74-1.62-1.63v-8.42h12.26v-7.31h-12.26V63.1h15.36v-5.16
			C127.98,56.76,127.01,55.79,125.83,55.79L125.83,55.79z M90.98,55.79H80.22v15.33H70.8V55.79H58.31v1.57c0,0,1.71,0.64,1.71,2.68
			V95.8H70.8V78.44h9.41V95.8h10.76V55.79L90.98,55.79z M190.55,55.79v37.86c0,1.18-0.97,2.15-2.15,2.15h-6.6l-14.54-22.93
			c0,0,0.3,1.9,0.3,4.29c0,2.38,0,18.64,0,18.64h-8.05V55.79c0,0,1.27,0,5.21,0c2.66,0,4.6,1.1,6,3.29
			c1.18,1.86,12.17,19.15,12.17,19.15s-0.39-1.18-0.39-4.33c0-3.16,0-18.11,0-18.11H190.55L190.55,55.79z M345.14,55.79v1.57
			c0,0-1.71,0.68-1.71,2.68l0.01,33.61c0,1.18-0.96,2.15-2.14,2.15h-6.61l-14.54-22.93c0,0,0.3,1.9,0.3,4.29c0,2.38,0,18.64,0,18.64
			h-8.05V55.79c0,0,1.27,0,5.21,0c2.66,0,4.6,1.1,6,3.29c1.18,1.86,12.17,19.15,12.17,19.15s-0.39-1.18-0.39-4.33
			c0-3.16,0-18.11,0-18.11H345.14z"/>
		<path class="st1" d="M38.26,70.36c-0.54,0.39-1.25-0.12-1.04-0.74c0.29-0.89,5.7-17.55,5.7-17.55L28,41.22
			c-0.54-0.39-0.26-1.22,0.39-1.21c0.94,0.01,18.45,0,18.45,0s5.41-16.65,5.7-17.54c0.2-0.62,1.08-0.64,1.28,0
			c0.29,0.89,5.7,17.54,5.7,17.54s17.51,0.01,18.45,0c0.66,0,0.94,0.82,0.39,1.21l-8.9,6.47H58.93l-3.25-10.01l-3.25,10.01H41.89
			l8.52,6.19l-3.26,10.01C47.15,63.89,38.8,69.97,38.26,70.36z"/>
	</g>
	<rect x="0" y="0" class="st2" width="383.44" height="135.82"/>
</g>
</svg>
