<svg width="85" height="82" viewBox="0 0 85 82" fill="none" xmlns="http://www.w3.org/2000/svg">
<path d="M23.8345 41.1845C22.7844 40.8425 21.6414 40.9317 20.6571 41.4324C19.6727 41.9331 18.9276 42.8043 18.5856 43.8544C18.2436 44.9045 18.3328 46.0474 18.8335 47.0318C19.3342 48.0161 20.2054 48.7613 21.2555 49.1033L21.3453 49.1306L23.8345 41.1845Z" fill="#037C7C"/>
<path d="M22.3955 37.8995L27.5781 39.5196L16.9253 73.5639C16.904 73.632 16.8695 73.6952 16.8237 73.75C16.778 73.8048 16.7218 73.85 16.6586 73.883C16.5953 73.9161 16.5262 73.9364 16.4551 73.9427C16.384 73.949 16.3124 73.9413 16.2443 73.9199L12.0981 72.6212C12.0299 72.5999 11.9667 72.5654 11.9119 72.5196C11.8571 72.4738 11.8119 72.4177 11.7789 72.3545C11.7458 72.2912 11.7255 72.2221 11.7192 72.151C11.7129 72.0799 11.7206 72.0082 11.742 71.9402L22.3968 37.9066L22.3955 37.8995Z" fill="#112F5C"/>
<path d="M57.4372 28.3723L77.6494 34.7014C77.7841 34.7449 77.8966 34.8394 77.9627 34.9646C78.0288 35.0898 78.0434 35.2359 78.0034 35.3718L66.7002 71.4884C66.6571 71.6255 66.5613 71.7399 66.434 71.8066C66.3067 71.8733 66.1581 71.8868 66.0209 71.8441L49.7809 66.7597C48.7273 66.4297 47.8479 65.6948 47.3361 64.7166C46.8243 63.7383 46.722 62.5968 47.0516 61.5432L57.4372 28.3723Z" fill="#28C5C6"/>
<path d="M62.4979 57.6556C62.8276 56.6019 62.7253 55.4605 62.2135 54.4822C61.7017 53.504 60.8223 52.769 59.7687 52.439L23.8343 41.1845C23.3126 41.021 22.7637 40.9618 22.219 41.0103C21.6744 41.0589 21.1446 41.2143 20.66 41.4676C20.1754 41.7209 19.7455 42.0671 19.3947 42.4866C19.0439 42.9061 18.7792 43.3905 18.6157 43.9123L29.0104 10.7416C29.3404 9.68802 30.0753 8.80864 31.0536 8.29684C32.0318 7.78503 33.1733 7.6827 34.227 8.01236L70.1607 19.2633C71.2143 19.5933 72.0936 20.3282 72.6054 21.3065C73.1172 22.2847 73.2196 23.4262 72.8899 24.4799L62.4979 57.6556Z" fill="#28C5C6"/>
<path d="M59.2907 60.5018C61.5509 60.0782 63.0398 57.9026 62.6162 55.6424C62.1926 53.3822 60.0169 51.8933 57.7567 52.3169C55.4965 52.7405 54.0077 54.9161 54.4313 57.1763C54.8549 59.4365 57.0305 60.9254 59.2907 60.5018Z" fill="#059B9B"/>
<path d="M57.2844 60.3806L52.2754 58.8126C51.7537 58.6491 51.2048 58.5899 50.6601 58.6384C50.1155 58.687 49.5857 58.8424 49.1011 59.0957C48.6165 59.349 48.1865 59.6952 47.8358 60.1147C47.485 60.5342 47.2203 61.0186 47.0567 61.5404L50.7903 49.6203L59.7732 52.4327L57.2844 60.3806Z" fill="#059B9B"/>
<path d="M69.9687 19.1664L50.2057 12.9742L39.8113 46.1467L59.5831 52.3373C60.6367 52.6673 61.5161 53.4022 62.0279 54.3805C62.5397 55.3587 62.642 56.5002 62.3124 57.5539L72.6982 24.3848C72.8618 23.863 72.921 23.3141 72.8725 22.7695C72.8239 22.2248 72.6685 21.6951 72.4152 21.2105C72.1619 20.7259 71.8157 20.2959 71.3962 19.9451C70.9767 19.5944 70.4922 19.3296 69.9704 19.1661L69.9687 19.1664Z" fill="url(#paint0_linear)"/>
<path d="M54.6807 31.5799C54.6807 33.8667 53.7817 35.9372 52.3156 37.4667C50.7674 39.0821 48.585 40.0893 46.1713 40.0893C41.4709 40.0893 37.662 36.2804 37.662 31.5799C37.662 30.9458 37.7329 30.3265 37.8634 29.7296C38.7103 25.9207 42.1051 23.0706 46.1713 23.0706C47.6748 23.0706 49.0849 23.4586 50.3085 24.145C50.3122 24.145 50.3159 24.145 50.3197 24.1488L53.4831 27.2264C54.2442 28.4985 54.6807 29.987 54.6807 31.5799Z" fill="#103567"/>
<path d="M52.3156 37.4668C50.7674 39.0822 48.585 40.0894 46.1713 40.0894C41.4709 40.0894 37.662 36.2805 37.662 31.58C37.662 30.9459 37.7329 30.3266 37.8634 29.7297C39.2661 34.501 43.6756 37.9816 48.9021 37.9816C50.0884 37.9816 51.2374 37.8025 52.3156 37.4668Z" fill="#072146"/>
<path d="M54.4746 26.235L53.4831 27.2265L53.4821 27.2254C53.1622 27.5453 52.203 27.1047 51.3397 26.2413C50.4763 25.3779 50.0356 24.4186 50.3555 24.0988L50.3085 24.145L51.3447 23.1089" fill="#072146"/>
<ellipse cx="52.9091" cy="24.6716" rx="0.819009" ry="2.21067" transform="rotate(-45 52.9091 24.6716)" fill="#103567"/>
<path d="M55.5442 22.4852L53.1335 24.8958C53.0718 24.9576 52.9906 24.9888 52.9095 24.9888C52.8283 24.9888 52.7471 24.9575 52.685 24.8958C52.5615 24.772 52.5615 24.5711 52.685 24.4473L53.8248 23.3075C53.8252 23.3071 53.826 23.3062 53.8265 23.3058L55.0956 22.037C55.2195 21.9132 55.4203 21.9132 55.5442 22.037C55.6681 22.1609 55.6681 22.3613 55.5442 22.4852Z" fill="#D3D3D3"/>
<path d="M55.5441 22.4852L54.275 23.7543C54.2132 23.8161 54.132 23.8473 54.0509 23.8473C53.9697 23.8473 53.8886 23.816 53.8264 23.7543C53.7034 23.6309 53.703 23.4313 53.8247 23.3075C53.8251 23.3071 53.826 23.3062 53.8264 23.3058L55.0956 22.037C55.2194 21.9132 55.4203 21.9132 55.5441 22.037C55.668 22.1609 55.668 22.3613 55.5441 22.4852Z" fill="#F35E61"/>
<path opacity="0.669387" d="M44.6257 24.6549C42.7322 24.9508 48.1779 29.0871 51.2926 30.6483C51.7271 30.8661 52.2438 30.5756 52.2931 30.092C52.3474 29.5592 52.3025 28.8087 51.9313 27.8881C51.2769 26.2652 47.5479 24.1886 44.6257 24.6549Z" fill="#0259A3"/>
<path fill-rule="evenodd" clip-rule="evenodd" d="M55.4087 21.1925C55.2335 21.1925 55.0916 21.0506 55.0916 20.8754L55.0916 19.3733C55.0916 19.1981 55.2335 19.0562 55.4087 19.0562C55.5839 19.0562 55.7258 19.1981 55.7258 19.3733L55.7258 20.8754C55.7258 21.0506 55.5838 21.1925 55.4087 21.1925ZM55.4087 25.6535C55.2335 25.6535 55.0916 25.5116 55.0916 25.3364L55.0916 23.8343C55.0916 23.6591 55.2335 23.5172 55.4087 23.5172C55.5839 23.5172 55.7258 23.6591 55.7258 23.8343L55.7258 25.3365C55.7258 25.5116 55.5838 25.6535 55.4087 25.6535ZM54.2148 21.4254C54.2776 21.5002 54.3674 21.5387 54.4579 21.5387C54.5298 21.5387 54.6021 21.5144 54.6616 21.4645C54.7958 21.3519 54.8133 21.152 54.7007 21.0178L53.7351 19.867C53.6225 19.7329 53.4226 19.7153 53.2884 19.828C53.1542 19.9405 53.1367 20.1405 53.2493 20.2747L54.2148 21.4254ZM57.3253 24.9559C57.2348 24.9559 57.145 24.9174 57.0822 24.8427L56.1166 23.692C56.004 23.5577 56.0215 23.3578 56.1557 23.2452C56.2898 23.1327 56.4899 23.1502 56.6024 23.2843L57.568 24.435C57.6806 24.5692 57.6631 24.7692 57.5289 24.8817C57.4695 24.9316 57.3972 24.9559 57.3253 24.9559ZM53.8967 22.4103C53.9154 22.4136 53.9338 22.4151 53.9521 22.4151C54.1031 22.4151 54.2369 22.3069 54.264 22.1531C54.2944 21.9807 54.1793 21.8162 54.0068 21.7858L52.5275 21.525C52.3548 21.4944 52.1906 21.6097 52.1602 21.7821C52.1297 21.9546 52.2449 22.119 52.4173 22.1494L53.8967 22.4103ZM58.3452 23.1898C58.3269 23.1898 58.3085 23.1882 58.2898 23.185L56.8105 22.9241C56.638 22.8937 56.5229 22.7292 56.5533 22.5568C56.5838 22.3843 56.748 22.269 56.9206 22.2996L58.3999 22.5605C58.5724 22.5909 58.6875 22.7553 58.6571 22.9278C58.63 23.0816 58.4962 23.1898 58.3452 23.1898ZM56.4152 21.7738C56.4739 21.8755 56.5805 21.9323 56.6901 21.9323C56.7439 21.9323 56.7984 21.9186 56.8483 21.8898L58.1492 21.1387C58.3009 21.0511 58.3528 20.8572 58.2653 20.7056C58.1777 20.5539 57.9838 20.5021 57.8321 20.5895L56.5312 21.3406C56.3795 21.4282 56.3276 21.6221 56.4152 21.7738Z" fill="#F35E61"/>
<path opacity="0.5" fill-rule="evenodd" clip-rule="evenodd" d="M55.4087 21.1925C55.2335 21.1925 55.0916 21.0506 55.0916 20.8754L55.0916 19.3733C55.0916 19.1981 55.2335 19.0562 55.4087 19.0562C55.5839 19.0562 55.7258 19.1981 55.7258 19.3733L55.7258 20.8754C55.7258 21.0506 55.5838 21.1925 55.4087 21.1925ZM55.4087 25.6535C55.2335 25.6535 55.0916 25.5116 55.0916 25.3364L55.0916 23.8343C55.0916 23.6591 55.2335 23.5172 55.4087 23.5172C55.5839 23.5172 55.7258 23.6591 55.7258 23.8343L55.7258 25.3365C55.7258 25.5116 55.5838 25.6535 55.4087 25.6535ZM54.2148 21.4254C54.2776 21.5002 54.3674 21.5387 54.4579 21.5387C54.5298 21.5387 54.6021 21.5144 54.6616 21.4645C54.7958 21.3519 54.8133 21.152 54.7007 21.0178L53.7351 19.867C53.6225 19.7329 53.4226 19.7153 53.2884 19.828C53.1542 19.9405 53.1367 20.1405 53.2493 20.2747L54.2148 21.4254ZM57.3253 24.9559C57.2348 24.9559 57.145 24.9174 57.0822 24.8427L56.1166 23.692C56.004 23.5577 56.0215 23.3578 56.1557 23.2452C56.2898 23.1327 56.4899 23.1502 56.6024 23.2843L57.568 24.435C57.6806 24.5692 57.6631 24.7692 57.5289 24.8817C57.4695 24.9316 57.3972 24.9559 57.3253 24.9559ZM53.8967 22.4103C53.9154 22.4136 53.9338 22.4151 53.9521 22.4151C54.1031 22.4151 54.2369 22.3069 54.264 22.1531C54.2944 21.9807 54.1793 21.8162 54.0068 21.7858L52.5275 21.525C52.3548 21.4944 52.1906 21.6097 52.1602 21.7821C52.1297 21.9546 52.2449 22.119 52.4173 22.1494L53.8967 22.4103ZM58.3452 23.1898C58.3269 23.1898 58.3085 23.1882 58.2898 23.185L56.8105 22.9241C56.638 22.8937 56.5229 22.7292 56.5533 22.5568C56.5838 22.3843 56.748 22.269 56.9206 22.2996L58.3999 22.5605C58.5724 22.5909 58.6875 22.7553 58.6571 22.9278C58.63 23.0816 58.4962 23.1898 58.3452 23.1898ZM56.4152 21.7738C56.4739 21.8755 56.5805 21.9323 56.6901 21.9323C56.7439 21.9323 56.7984 21.9186 56.8483 21.8898L58.1492 21.1387C58.3009 21.0511 58.3528 20.8572 58.2653 20.7056C58.1777 20.5539 57.9838 20.5021 57.8321 20.5895L56.5312 21.3406C56.3795 21.4282 56.3276 21.6221 56.4152 21.7738Z" fill="url(#paint1_linear)"/>
<mask id="mask0" mask-type="alpha" maskUnits="userSpaceOnUse" x="37" y="19" width="22" height="22">
<path d="M54.6807 31.5799C54.6807 33.8667 53.7817 35.9372 52.3156 37.4667C50.7674 39.0821 48.585 40.0893 46.1713 40.0893C41.4709 40.0893 37.662 36.2804 37.662 31.5799C37.662 30.9458 37.7329 30.3265 37.8634 29.7296C38.7103 25.9207 42.1051 23.0706 46.1713 23.0706C47.6748 23.0706 49.0849 23.4586 50.3085 24.145C50.3122 24.145 50.3159 24.145 50.3197 24.1488L53.4831 27.2264C54.2442 28.4985 54.6807 29.987 54.6807 31.5799Z" fill="#103567"/>
<path d="M52.3156 37.4668C50.7674 39.0822 48.585 40.0894 46.1713 40.0894C41.4709 40.0894 37.662 36.2805 37.662 31.58C37.662 30.9459 37.7329 30.3266 37.8634 29.7297C39.2661 34.501 43.6756 37.9816 48.9021 37.9816C50.0884 37.9816 51.2374 37.8025 52.3156 37.4668Z" fill="#072146"/>
<path d="M54.4746 26.235L53.4831 27.2265L53.4821 27.2254C53.1622 27.5453 52.203 27.1047 51.3397 26.2413C50.4763 25.3779 50.0356 24.4186 50.3555 24.0988L50.3085 24.145L51.3447 23.1089" fill="#072146"/>
<ellipse cx="52.9091" cy="24.6716" rx="0.819009" ry="2.21067" transform="rotate(-45 52.9091 24.6716)" fill="#103567"/>
<path d="M55.5442 22.4852L53.1335 24.8958C53.0718 24.9576 52.9906 24.9888 52.9095 24.9888C52.8283 24.9888 52.7471 24.9575 52.685 24.8958C52.5615 24.772 52.5615 24.5711 52.685 24.4473L53.8248 23.3075C53.8252 23.3071 53.826 23.3062 53.8265 23.3058L55.0956 22.037C55.2195 21.9132 55.4203 21.9132 55.5442 22.037C55.6681 22.1609 55.6681 22.3613 55.5442 22.4852Z" fill="#D3D3D3"/>
<path d="M55.5441 22.4852L54.275 23.7543C54.2132 23.8161 54.132 23.8473 54.0509 23.8473C53.9697 23.8473 53.8886 23.816 53.8264 23.7543C53.7034 23.6309 53.703 23.4313 53.8247 23.3075C53.8251 23.3071 53.826 23.3062 53.8264 23.3058L55.0956 22.037C55.2194 21.9132 55.4203 21.9132 55.5441 22.037C55.668 22.1609 55.668 22.3613 55.5441 22.4852Z" fill="#F35E61"/>
<path opacity="0.669387" d="M44.6257 24.6549C42.7322 24.9508 48.1779 29.0871 51.2926 30.6483C51.7271 30.8661 52.2438 30.5756 52.2931 30.092C52.3474 29.5592 52.3025 28.8087 51.9313 27.8881C51.2769 26.2652 47.5479 24.1886 44.6257 24.6549Z" fill="#0259A3"/>
<path fill-rule="evenodd" clip-rule="evenodd" d="M55.4087 21.1925C55.2335 21.1925 55.0916 21.0506 55.0916 20.8754L55.0916 19.3733C55.0916 19.1981 55.2335 19.0562 55.4087 19.0562C55.5839 19.0562 55.7258 19.1981 55.7258 19.3733L55.7258 20.8754C55.7258 21.0506 55.5838 21.1925 55.4087 21.1925ZM55.4087 25.6535C55.2335 25.6535 55.0916 25.5116 55.0916 25.3364L55.0916 23.8343C55.0916 23.6591 55.2335 23.5172 55.4087 23.5172C55.5839 23.5172 55.7258 23.6591 55.7258 23.8343L55.7258 25.3365C55.7258 25.5116 55.5838 25.6535 55.4087 25.6535ZM54.2148 21.4254C54.2776 21.5002 54.3674 21.5387 54.4579 21.5387C54.5298 21.5387 54.6021 21.5144 54.6616 21.4645C54.7958 21.3519 54.8133 21.152 54.7007 21.0178L53.7351 19.867C53.6225 19.7329 53.4226 19.7153 53.2884 19.828C53.1542 19.9405 53.1367 20.1405 53.2493 20.2747L54.2148 21.4254ZM57.3253 24.9559C57.2348 24.9559 57.145 24.9174 57.0822 24.8427L56.1166 23.692C56.004 23.5577 56.0215 23.3578 56.1557 23.2452C56.2898 23.1327 56.4899 23.1502 56.6024 23.2843L57.568 24.435C57.6806 24.5692 57.6631 24.7692 57.5289 24.8817C57.4695 24.9316 57.3972 24.9559 57.3253 24.9559ZM53.8967 22.4103C53.9154 22.4136 53.9338 22.4151 53.9521 22.4151C54.1031 22.4151 54.2369 22.3069 54.264 22.1531C54.2944 21.9807 54.1793 21.8162 54.0068 21.7858L52.5275 21.525C52.3548 21.4944 52.1906 21.6097 52.1602 21.7821C52.1297 21.9546 52.2449 22.119 52.4173 22.1494L53.8967 22.4103ZM58.3452 23.1898C58.3269 23.1898 58.3085 23.1882 58.2898 23.185L56.8105 22.9241C56.638 22.8937 56.5229 22.7292 56.5533 22.5568C56.5838 22.3843 56.748 22.269 56.9206 22.2996L58.3999 22.5605C58.5724 22.5909 58.6875 22.7553 58.6571 22.9278C58.63 23.0816 58.4962 23.1898 58.3452 23.1898ZM56.4152 21.7738C56.4739 21.8755 56.5805 21.9323 56.6901 21.9323C56.7439 21.9323 56.7984 21.9186 56.8483 21.8898L58.1492 21.1387C58.3009 21.0511 58.3528 20.8572 58.2653 20.7056C58.1777 20.5539 57.9838 20.5021 57.8321 20.5895L56.5312 21.3406C56.3795 21.4282 56.3276 21.6221 56.4152 21.7738Z" fill="#F35E61"/>
<path opacity="0.5" fill-rule="evenodd" clip-rule="evenodd" d="M55.4087 21.1925C55.2335 21.1925 55.0916 21.0506 55.0916 20.8754L55.0916 19.3733C55.0916 19.1981 55.2335 19.0562 55.4087 19.0562C55.5839 19.0562 55.7258 19.1981 55.7258 19.3733L55.7258 20.8754C55.7258 21.0506 55.5838 21.1925 55.4087 21.1925ZM55.4087 25.6535C55.2335 25.6535 55.0916 25.5116 55.0916 25.3364L55.0916 23.8343C55.0916 23.6591 55.2335 23.5172 55.4087 23.5172C55.5839 23.5172 55.7258 23.6591 55.7258 23.8343L55.7258 25.3365C55.7258 25.5116 55.5838 25.6535 55.4087 25.6535ZM54.2148 21.4254C54.2776 21.5002 54.3674 21.5387 54.4579 21.5387C54.5298 21.5387 54.6021 21.5144 54.6616 21.4645C54.7958 21.3519 54.8133 21.152 54.7007 21.0178L53.7351 19.867C53.6225 19.7329 53.4226 19.7153 53.2884 19.828C53.1542 19.9405 53.1367 20.1405 53.2493 20.2747L54.2148 21.4254ZM57.3253 24.9559C57.2348 24.9559 57.145 24.9174 57.0822 24.8427L56.1166 23.692C56.004 23.5577 56.0215 23.3578 56.1557 23.2452C56.2898 23.1327 56.4899 23.1502 56.6024 23.2843L57.568 24.435C57.6806 24.5692 57.6631 24.7692 57.5289 24.8817C57.4695 24.9316 57.3972 24.9559 57.3253 24.9559ZM53.8967 22.4103C53.9154 22.4136 53.9338 22.4151 53.9521 22.4151C54.1031 22.4151 54.2369 22.3069 54.264 22.1531C54.2944 21.9807 54.1793 21.8162 54.0068 21.7858L52.5275 21.525C52.3548 21.4944 52.1906 21.6097 52.1602 21.7821C52.1297 21.9546 52.2449 22.119 52.4173 22.1494L53.8967 22.4103ZM58.3452 23.1898C58.3269 23.1898 58.3085 23.1882 58.2898 23.185L56.8105 22.9241C56.638 22.8937 56.5229 22.7292 56.5533 22.5568C56.5838 22.3843 56.748 22.269 56.9206 22.2996L58.3999 22.5605C58.5724 22.5909 58.6875 22.7553 58.6571 22.9278C58.63 23.0816 58.4962 23.1898 58.3452 23.1898ZM56.4152 21.7738C56.4739 21.8755 56.5805 21.9323 56.6901 21.9323C56.7439 21.9323 56.7984 21.9186 56.8483 21.8898L58.1492 21.1387C58.3009 21.0511 58.3528 20.8572 58.2653 20.7056C58.1777 20.5539 57.9838 20.5021 57.8321 20.5895L56.5312 21.3406C56.3795 21.4282 56.3276 21.6221 56.4152 21.7738Z" fill="url(#paint2_linear)"/>
</mask>
<g mask="url(#mask0)">
<path d="M69.9687 18.7272L50.2057 12.535L39.8113 45.7075L59.5831 51.8981C60.6367 52.2281 61.5161 52.963 62.0279 53.9412C62.5397 54.9195 62.642 56.061 62.3124 57.1146L72.6982 23.9456C72.8618 23.4238 72.921 22.8749 72.8725 22.3303C72.8239 21.7856 72.6685 21.2559 72.4152 20.7713C72.1619 20.2867 71.8157 19.8567 71.3962 19.5059C70.9767 19.1551 70.4922 18.8904 69.9704 18.7269L69.9687 18.7272Z" fill="url(#paint3_linear)"/>
</g>
<defs>
<linearGradient id="paint0_linear" x1="74.4901" y1="31.881" x2="38.3715" y2="38.5809" gradientUnits="userSpaceOnUse">
<stop stop-color="#037C7C"/>
<stop offset="1" stop-color="#037C7C" stop-opacity="0"/>
</linearGradient>
<linearGradient id="paint1_linear" x1="51.9718" y1="19.8408" x2="54.1615" y2="23.416" gradientUnits="userSpaceOnUse">
<stop stop-color="#FFD100"/>
<stop offset="1" stop-color="#F7F2E7" stop-opacity="0.2"/>
</linearGradient>
<linearGradient id="paint2_linear" x1="51.9718" y1="19.8408" x2="54.1615" y2="23.416" gradientUnits="userSpaceOnUse">
<stop stop-color="#FFD100"/>
<stop offset="1" stop-color="#F7F2E7" stop-opacity="0.2"/>
</linearGradient>
<linearGradient id="paint3_linear" x1="74.4901" y1="31.4418" x2="38.3715" y2="38.1417" gradientUnits="userSpaceOnUse">
<stop stop-color="#131313"/>
<stop offset="1" stop-color="#131313" stop-opacity="0"/>
</linearGradient>
</defs>
</svg>
