<svg width="35" height="65" viewBox="0 0 35 65" fill="none" xmlns="http://www.w3.org/2000/svg">
<path d="M52.6453 38.7029C52.6453 45.77 49.8669 52.1685 45.3361 56.8953C40.5517 61.8874 33.8073 65 26.3482 65C11.822 65 0.0511475 53.2291 0.0511475 38.7029C0.0511475 36.7431 0.270268 34.8293 0.673726 32.9847C3.29074 21.214 13.782 12.406 26.3482 12.406C30.9944 12.406 35.3522 13.6049 39.1335 15.7263C39.1451 15.7263 39.1565 15.7263 39.1681 15.7379L48.9444 25.2491C51.2964 29.1803 52.6453 33.7803 52.6453 38.7029Z" fill="#103567"/>
<path d="M45.3361 56.895C40.5517 61.8871 33.8073 64.9997 26.3482 64.9997C11.822 64.9997 0.0511475 53.2289 0.0511475 38.7027C0.0511475 36.7429 0.270268 34.8291 0.673726 32.9844C5.00854 47.7297 18.6354 58.486 34.7873 58.486C38.4535 58.486 42.0043 57.9325 45.3361 56.895ZM52.0082 22.1848L48.9444 25.2487L48.9412 25.2455C47.9526 26.2341 44.9884 24.8724 42.3202 22.2041C39.652 19.5359 38.2903 16.5714 39.2788 15.5831L39.1335 15.7259L42.3357 12.5238" fill="#072146"/>
<path d="M52.0009 22.184C52.9893 21.1955 51.6277 18.2314 48.9596 15.5633C46.2916 12.8953 43.3274 11.5336 42.339 12.5221C41.3506 13.5105 42.7122 16.4746 45.3803 19.1427C48.0483 21.8108 51.0125 23.1724 52.0009 22.184Z" fill="#103567"/>
<path d="M55.3138 10.5967L47.864 18.0465C47.6732 18.2373 47.4223 18.3339 47.1716 18.3339C46.9207 18.3339 46.6699 18.2372 46.4778 18.0465C46.0963 17.6638 46.0963 17.0431 46.4778 16.6603L50.0002 13.1379C50.0015 13.1366 50.0041 13.1339 50.0054 13.1327L53.9276 9.21172C54.3104 8.82896 54.9311 8.82896 55.3138 9.21172C55.6967 9.59449 55.6967 10.2139 55.3138 10.5967Z" fill="#D3D3D3"/>
<path d="M55.3138 10.5967L51.3916 14.5189C51.2008 14.7097 50.9499 14.8063 50.6992 14.8063C50.4484 14.8063 50.1975 14.7096 50.0054 14.5189C49.6252 14.1374 49.6239 13.5206 50.0002 13.1379C50.0015 13.1366 50.0041 13.1339 50.0054 13.1327L53.9276 9.21172C54.3104 8.82896 54.9311 8.82896 55.3138 9.21172C55.6967 9.59449 55.6967 10.2139 55.3138 10.5967Z" fill="#F35E61"/>
<path opacity="0.669" d="M21.5715 17.3019C15.7201 18.2162 32.5493 30.999 42.1747 35.8236C43.5176 36.4967 45.1145 35.599 45.2668 34.1045C45.4346 32.4581 45.2957 30.1388 44.1486 27.2935C42.1264 22.2784 30.6023 15.8608 21.5715 17.3019Z" fill="#0259A3"/>
<path d="M54.8946 13.786C55.4359 13.786 55.8746 14.2246 55.8746 14.7659V19.4082C55.8744 19.9494 55.4357 20.388 54.8946 20.388C54.3533 20.388 53.9147 19.9494 53.9147 19.4081V14.7659C53.9147 14.2246 54.3533 13.786 54.8946 13.786ZM58.5837 13.0664L61.5678 16.6225C61.9158 17.0372 61.8617 17.6551 61.447 18.003C61.2635 18.1571 61.0399 18.2322 60.8177 18.2322C60.5381 18.2322 60.2604 18.1132 60.0666 17.8822L57.0825 14.3262C56.7345 13.9114 56.7886 13.2935 57.2033 12.9457C57.6178 12.5979 58.2359 12.6519 58.5837 13.0664ZM59.5671 10.0232L64.1387 10.8294C64.6717 10.9233 65.0275 11.4315 64.9334 11.9644C64.8496 12.4396 64.4363 12.7742 63.9697 12.7742C63.9131 12.7742 63.8561 12.7693 63.7983 12.7592L59.2268 11.953C58.6938 11.8591 58.338 11.3509 58.432 10.8179C58.5261 10.285 59.0338 9.9285 59.5671 10.0232ZM45.9905 7.62925L50.5622 8.4354C51.0952 8.52935 51.451 9.03754 51.3569 9.57049C51.2733 10.0457 50.8598 10.3802 50.3932 10.3802C50.3366 10.3802 50.2796 10.3754 50.2218 10.3652L45.6501 9.55906C45.1172 9.46512 44.7613 8.95692 44.8554 8.42397C44.9495 7.89115 45.4569 7.53479 45.9905 7.62925ZM63.7227 5.09691C63.9932 5.56563 63.8327 6.16484 63.364 6.43551L59.3438 8.75672C59.1896 8.84571 59.021 8.88811 58.8547 8.88811C58.5159 8.88811 58.1868 8.71241 58.0051 8.39808C57.7346 7.92937 57.895 7.33015 58.3637 7.05948L62.3841 4.73827C62.8527 4.46799 63.4519 4.62808 63.7227 5.09691ZM49.7224 2.50567L52.7064 6.06188C53.0544 6.47664 53.0003 7.09452 52.5857 7.44237C52.402 7.59662 52.1786 7.67178 51.9563 7.67178C51.6766 7.67178 51.399 7.5527 51.2051 7.32177L48.2212 3.76543C47.8732 3.35067 47.9273 2.73279 48.3419 2.38494C48.7567 2.03671 49.3746 2.09117 49.7224 2.50567ZM54.8946 0C55.4359 0 55.8746 0.438623 55.8746 0.979951V5.62212C55.8744 6.16332 55.4357 6.60194 54.8946 6.60194C54.3533 6.60194 53.9147 6.16332 53.9147 5.62199V0.979951C53.9147 0.438623 54.3533 0 54.8946 0Z" fill="#F35E61"/>
<path opacity="0.5" d="M54.8946 13.786C55.4359 13.786 55.8746 14.2246 55.8746 14.7659V19.4082C55.8744 19.9494 55.4357 20.388 54.8946 20.388C54.3533 20.388 53.9147 19.9494 53.9147 19.4081V14.7659C53.9147 14.2246 54.3533 13.786 54.8946 13.786ZM58.5837 13.0664L61.5678 16.6225C61.9158 17.0372 61.8617 17.6551 61.447 18.003C61.2635 18.1571 61.0399 18.2322 60.8177 18.2322C60.5381 18.2322 60.2604 18.1132 60.0666 17.8822L57.0825 14.3262C56.7345 13.9114 56.7886 13.2935 57.2033 12.9457C57.6178 12.5979 58.2359 12.6519 58.5837 13.0664ZM59.5671 10.0232L64.1387 10.8294C64.6717 10.9233 65.0275 11.4315 64.9334 11.9644C64.8496 12.4396 64.4363 12.7742 63.9697 12.7742C63.9131 12.7742 63.8561 12.7693 63.7983 12.7592L59.2268 11.953C58.6938 11.8591 58.338 11.3509 58.432 10.8179C58.5261 10.285 59.0338 9.9285 59.5671 10.0232ZM45.9905 7.62925L50.5622 8.4354C51.0952 8.52935 51.451 9.03754 51.3569 9.57049C51.2733 10.0457 50.8598 10.3802 50.3932 10.3802C50.3366 10.3802 50.2796 10.3754 50.2218 10.3652L45.6501 9.55906C45.1172 9.46512 44.7613 8.95692 44.8554 8.42397C44.9495 7.89115 45.4569 7.53479 45.9905 7.62925ZM63.7227 5.09691C63.9932 5.56563 63.8327 6.16484 63.364 6.43551L59.3438 8.75672C59.1896 8.84571 59.021 8.88811 58.8547 8.88811C58.5159 8.88811 58.1868 8.71241 58.0051 8.39808C57.7346 7.92937 57.895 7.33015 58.3637 7.05948L62.3841 4.73827C62.8527 4.46799 63.4519 4.62808 63.7227 5.09691ZM49.7224 2.50567L52.7064 6.06188C53.0544 6.47664 53.0003 7.09452 52.5857 7.44237C52.402 7.59662 52.1786 7.67178 51.9563 7.67178C51.6766 7.67178 51.399 7.5527 51.2051 7.32177L48.2212 3.76543C47.8732 3.35067 47.9273 2.73279 48.3419 2.38494C48.7567 2.03671 49.3746 2.09117 49.7224 2.50567ZM54.8946 0C55.4359 0 55.8746 0.438623 55.8746 0.979951V5.62212C55.8744 6.16332 55.4357 6.60194 54.8946 6.60194C54.3533 6.60194 53.9147 6.16332 53.9147 5.62199V0.979951C53.9147 0.438623 54.3533 0 54.8946 0Z" fill="url(#paint0_linear)"/>
<defs>
<linearGradient id="paint0_linear" x1="49.9026" y1="-0.937646" x2="56.4871" y2="10.1145" gradientUnits="userSpaceOnUse">
<stop stop-color="#FFD100"/>
<stop offset="1" stop-color="#F7F2E7" stop-opacity="0.2"/>
</linearGradient>
</defs>
</svg>
