<svg width="30" height="30" viewBox="0 0 30 30" fill="none" xmlns="http://www.w3.org/2000/svg">
<path d="M15 1.15384C12.2615 1.15384 9.58445 1.9659 7.30746 3.48734C5.03047 5.00877 3.25577 7.17125 2.20779 9.7013C1.15981 12.2314 0.885608 15.0154 1.41986 17.7012C1.95412 20.3871 3.27284 22.8543 5.20926 24.7907C7.14568 26.7271 9.61283 28.0458 12.2987 28.5801C14.9846 29.1144 17.7686 28.8402 20.2987 27.7922C22.8287 26.7442 24.9912 24.9695 26.5126 22.6925C28.0341 20.4155 28.8461 17.7385 28.8461 15C28.8461 13.1817 28.488 11.3812 27.7921 9.7013C27.0963 8.02141 26.0764 6.49502 24.7907 5.20928C23.5049 3.92355 21.9786 2.90365 20.2987 2.20781C18.6188 1.51198 16.8183 1.15384 15 1.15384ZM15 23.0769C14.6577 23.0769 14.323 22.9754 14.0384 22.7852C13.7538 22.5951 13.5319 22.3247 13.4009 22.0085C13.2699 21.6922 13.2357 21.3442 13.3025 21.0085C13.3692 20.6728 13.5341 20.3644 13.7761 20.1223C14.0182 19.8803 14.3266 19.7154 14.6623 19.6486C14.998 19.5819 15.346 19.6161 15.6623 19.7471C15.9786 19.8781 16.2489 20.1 16.4391 20.3846C16.6292 20.6692 16.7307 21.0038 16.7307 21.3461C16.7307 21.8052 16.5484 22.2454 16.2238 22.57C15.8992 22.8946 15.459 23.0769 15 23.0769ZM17.5961 14.955C16.0384 15.8631 16.0557 16.2496 16.0557 18.1615H13.7965C13.7491 17.6992 13.7264 17.2347 13.7284 16.77C13.7284 15.3011 14.5361 14.4519 15.5423 13.8335C16.4838 13.2346 16.9107 12.81 16.9107 11.8627C16.9107 11.0896 16.3338 10.5485 15.3023 10.5485C14.1727 10.5485 13.0257 11.34 12.3588 12.2296L10.6996 10.4723C11.738 9.15807 13.335 8.07692 15.5942 8.07692C18.195 8.07692 19.6154 9.56422 19.6154 11.6123C19.6154 13.4088 18.7084 14.2788 17.5961 14.955Z" fill="#003C76"/>
</svg>
