<svg width="27" height="25" viewBox="0 0 27 25" fill="none" xmlns="http://www.w3.org/2000/svg">
<path d="M13.319 0.106597L17.2761 8.12091L26.1237 9.40216C26.1968 9.41277 26.2575 9.46385 26.2805 9.53397C26.3034 9.6041 26.2846 9.68116 26.2319 9.73283L19.8292 15.9683L21.3408 24.7733C21.3532 24.8461 21.3232 24.9196 21.2634 24.9629C21.2037 25.0063 21.1245 25.0121 21.0591 24.9778L13.1448 20.8209L5.23109 24.9778C5.16567 25.0121 5.08648 25.0063 5.02672 24.9629C4.96697 24.9196 4.93699 24.8461 4.94937 24.7733L6.46099 15.9683L0.058295 9.73283C0.00562055 9.68124 -0.013277 9.60431 0.00951145 9.53422C0.0322999 9.46413 0.0928443 9.41297 0.165805 9.40216L9.01403 8.12091L12.9705 0.109832C13.0027 0.0432743 13.0698 0.000703325 13.1438 8.22467e-06C13.2177 -0.000670018 13.2856 0.0406467 13.319 0.106597Z" fill="#F7C647"/>
<path d="M26.1238 9.40213L17.2762 8.12088L16.7095 6.97357L7.71106 23.6752L13.1442 20.8208L21.0592 24.9778C21.1246 25.012 21.2038 25.0063 21.2636 24.9629C21.3233 24.9195 21.3533 24.8461 21.3409 24.7733L19.8293 15.9682L26.2339 9.7328C26.2867 9.68086 26.3053 9.60344 26.2819 9.5332C26.2586 9.46296 26.1972 9.41213 26.1238 9.40213Z" fill="url(#paint0_linear)"/>
<defs>
<linearGradient id="paint0_linear" x1="26.291" y1="15.9851" x2="7.71162" y2="15.9851" gradientUnits="userSpaceOnUse">
<stop stop-color="#F7893B" stop-opacity="0.76"/>
<stop offset="1" stop-color="#F7893B" stop-opacity="0"/>
</linearGradient>
</defs>
</svg>
