<svg width="76" height="76" viewBox="0 0 76 76" fill="none" xmlns="http://www.w3.org/2000/svg">
<g clip-path="url(#clip0)">
<path d="M69.126 75.5436L40.982 54.748L33.431 71.3035C32.9731 72.3072 31.9003 72.8446 30.8219 72.6106C29.7437 72.3764 28.9907 71.442 28.9907 70.3386V52.78L11.0768 64.4613C10.1344 65.0758 8.92746 64.9424 8.14178 64.1366C7.3564 63.3306 7.25368 62.1206 7.89255 61.1942L20.273 43.2299L10.4515 43.4769C9.31963 43.5024 8.33846 42.7216 8.11417 41.6137C7.88988 40.5054 8.4909 39.4014 9.54318 38.9881L18.439 35.4946L4.25495 26.5979C3.31401 26.0082 2.92109 24.8276 3.32128 23.7913C3.72102 22.7549 4.80625 22.144 5.8986 22.3395L22.3086 25.2636L18.9477 18.7122C18.4461 17.7335 18.6874 16.5607 19.5337 15.86C20.3804 15.1592 21.5773 15.1411 22.4447 15.816L28.2641 20.3475L27.5654 2.41599C27.5217 1.28936 28.2892 0.296311 29.3901 0.054804C30.4906 -0.187297 31.6036 0.393241 32.036 1.43423L39.4439 19.2883L44.1081 13.0106C44.7762 12.1113 45.9508 11.8162 46.9643 12.2932C47.978 12.7702 48.4995 13.8632 48.2324 14.9514L46.5788 21.6864L65.9751 11.0767C66.959 10.5386 68.1869 10.7794 68.8946 11.6495C69.6022 12.5197 69.588 13.7706 68.8608 14.6244L54.5104 31.4754L67.5463 32.0966C70.0014 32.2137 70.6129 35.5797 68.3573 36.5536L52.864 43.2382L72.4378 72.3773C73.0701 73.3187 72.9343 74.5706 72.1146 75.3545C71.2994 76.1333 70.0429 76.2211 69.126 75.5436Z" fill="#F7893B"/>
<path d="M29.3904 0.0545929C28.2893 0.296249 27.522 1.28915 27.5657 2.41593L28.2643 20.3474L22.445 15.816C21.5776 15.141 20.381 15.159 19.534 15.86C18.6875 16.5607 18.4466 17.7335 18.948 18.7121L22.3089 25.2635L5.89857 22.3395C4.80607 22.144 3.721 22.7549 3.32126 23.7912C2.92122 24.8277 3.31413 26.0082 4.25493 26.5978L18.439 35.4946L9.54315 38.988C8.49103 39.4013 7.88986 40.5054 8.11415 41.6134C8.33843 42.7214 9.3196 43.5023 10.4513 43.4766L20.2729 43.2296L7.89253 61.1941C7.25395 62.1206 7.35637 63.3306 8.14175 64.1367C8.92743 64.9426 10.1344 65.0757 11.0768 64.4612L28.9905 52.7799V52.8141L34.518 45.1577L40.559 24.2573C40.4439 21.3056 39.4439 19.2882 39.4439 19.2882L32.0363 1.43432C31.6039 0.393178 30.4908 -0.18736 29.3904 0.0545929Z" fill="#F7893B"/>
<path d="M41.7311 50.4317L64.0625 66.9325L48.5451 43.8322C47.7346 42.6268 48.2169 40.9784 49.5533 40.401L60.4929 35.6812L51.0871 35.2329C49.1587 35.1406 48.1756 32.8726 49.4281 31.4026L60.286 18.6525L45.2872 26.8567C44.4789 27.2988 43.4847 27.2216 42.7542 26.66C42.0238 26.0987 41.6937 25.1574 41.9133 24.2626L42.5484 21.6766L40.9151 23.8748C39.8407 25.3205 37.5925 25.0448 36.9015 23.3796L31.8247 11.1442L32.3106 23.6157C32.3457 24.5159 31.8506 25.3633 31.0489 25.7746C30.2472 26.1859 29.2699 26.0944 28.559 25.5408L25.7171 23.3279L27.2581 26.3319C28.1354 28.0416 26.6746 30.019 24.7822 29.6822L13.2737 27.6316L23.1927 33.853C23.9404 34.3216 24.3543 35.1591 24.2722 36.0385C24.1904 36.9176 23.6287 37.6643 22.8069 37.9868L19.3746 39.3348L23.2978 39.2361C24.1729 39.2159 24.9823 39.6807 25.4007 40.4537C25.8192 41.2266 25.7692 42.1564 25.2703 42.8801L15.6949 56.7745L29.3121 47.8949C30.028 47.4286 30.9388 47.3915 31.6897 47.7982C32.4407 48.2051 32.9071 48.9886 32.9071 49.8425V63.0148L38.2336 51.3365C38.5262 50.6954 39.0849 50.2268 39.7668 50.0505C40.4457 49.8747 41.1622 50.0113 41.7311 50.4317Z" fill="#FFE091"/>
<path d="M15.6947 56.7744L29.3119 47.8948C30.0278 47.4285 30.9386 47.3914 31.6896 47.7981C31.94 47.934 32.1579 48.1122 32.3384 48.3203L34.518 45.1576C34.957 44.5209 35.0009 43.7029 34.6329 43.0228C34.2648 42.3425 33.5525 41.9337 32.7825 41.9515L29.3306 42.0383L32.3504 40.8523C33.0736 40.5684 33.5676 39.9114 33.6396 39.138C33.7117 38.3644 33.3476 37.6275 32.6897 37.2152L23.9622 31.7409L34.0888 33.5453C35.7539 33.8418 37.0391 32.1018 36.2672 30.5975L34.9113 27.9545L37.4118 29.9017C38.0373 30.3887 38.8974 30.4694 39.6026 30.1075C40.3078 29.7455 40.7437 28.9998 40.7128 28.208L40.5588 24.2576C39.405 25.2508 37.5233 24.8781 36.9014 23.3801L31.8249 11.1445L32.3109 23.6161C32.346 24.5162 31.8509 25.3636 31.0492 25.775C30.2475 26.1863 29.2702 26.0947 28.5593 25.5412L25.7174 23.3283L27.2584 26.3322C28.1357 28.042 26.6749 30.0194 24.7825 29.6826L13.2737 27.6316L23.1927 33.8531C23.9404 34.3217 24.3541 35.1592 24.2722 36.0385C24.1902 36.9175 23.6287 37.6642 22.8069 37.9869L19.3746 39.3348L23.2978 39.2361C24.1729 39.2159 24.9823 39.6807 25.4007 40.4538C25.8193 41.2267 25.7692 42.1565 25.2703 42.88L15.6947 56.7744Z" fill="#F7C647"/>
</g>
<defs>
<clipPath id="clip0">
<rect width="76" height="76" fill="white"/>
</clipPath>
</defs>
</svg>
