<svg width="20px" height="18px" viewBox="0 0 20 18" version="1.1" xmlns="http://www.w3.org/2000/svg" xmlns:xlink="http://www.w3.org/1999/xlink"> <g id="icoHome" transform="translate(-25.000000, -238.000000)" fill="#FFFFFF"> <g transform="translate(24.000000, 238.000000)"> <g transform="translate(1.000000, 0.000000)"> <path d="M14.6153846,17.6923077 L14.6153846,11.5384615 L10,11.5384615 L10,17.6923077 L3.31711989,17.6923077 C2.75962843,17.6923077 2.30769231,17.2380653 2.30769231,16.7003996 L2.30769231,10.7692308 L10,4.61538462 L17.6923077,10.7692308 L17.6923077,16.7003996 C17.6923077,17.2482153 17.2484677,17.6923077 16.6828801,17.6923077 L14.6153846,17.6923077 Z M4.61538462,13.8461538 L6.92307692,13.8461538 L8.46153846,12.3076923 L4.61538462,12.3076923 L4.61538462,13.8461538 Z M10,0 L20,8.46153846 L18.4615385,10 L10,3.07692308 L1.53846154,10 L0,8.46153846 L10,0 Z" id="icon-home"></path> </g> </g> </g> </svg>