<svg width="26" height="26" viewBox="0 0 26 26" fill="none" xmlns="http://www.w3.org/2000/svg">
<path d="M9.63038 18.8938L5.59242 16.7468L5.23563 17.4176C5.1818 17.5188 5.15172 17.631 5.14768 17.7455C5.14365 17.8601 5.16576 17.9741 5.21235 18.0789C5.54586 18.834 6.27076 20.83 5.88251 23.2004C5.86955 23.2784 5.88141 23.3585 5.91641 23.4294C5.95141 23.5003 6.00778 23.5585 6.07758 23.5956L6.89876 24.0311L7.7168 24.4715C7.78742 24.5091 7.86813 24.5232 7.9473 24.5119C8.02646 24.5006 8.09999 24.4644 8.15728 24.4086C9.90536 22.7619 11.9643 22.2471 12.7779 22.1005C12.8909 22.0806 12.9978 22.0352 13.0906 21.9678C13.1833 21.9005 13.2596 21.8128 13.3134 21.7116L13.6702 21.0408L9.63038 18.8938Z" fill="#2DCCCD"/>
<path d="M21.5668 3.66446L15.5826 0.481666C15.4979 0.436641 15.3993 0.425502 15.3068 0.450511C15.2142 0.475519 15.1347 0.534801 15.0842 0.616328L5.42697 16.2024C5.39972 16.2464 5.38178 16.2954 5.37426 16.3465C5.36674 16.3977 5.3698 16.4498 5.38325 16.4997C5.3967 16.5496 5.42025 16.5962 5.45245 16.6367C5.48465 16.6771 5.52481 16.7105 5.57044 16.7348L13.6879 21.0521C13.7335 21.0764 13.7836 21.0911 13.8351 21.0952C13.8866 21.0994 13.9384 21.0929 13.9873 21.0762C14.0362 21.0595 14.0812 21.0329 14.1194 20.9982C14.1576 20.9634 14.1883 20.9212 14.2095 20.8741L21.7336 4.15213C21.7727 4.06484 21.7773 3.96594 21.7464 3.87542C21.7154 3.78489 21.6512 3.70949 21.5668 3.66446V3.66446Z" fill="#1464A5"/>
<path d="M21.3502 3.54932L15.797 0.596836L15.9436 0.358976C16.0443 0.195546 16.2035 0.0766065 16.3888 0.0263438C16.574 -0.0239189 16.7715 -0.00173101 16.941 0.0883954L21.1319 2.3166C21.3013 2.4067 21.4301 2.55793 21.492 2.73957C21.554 2.9212 21.5444 3.11961 21.4654 3.29447L21.3502 3.54932Z" fill="#2DCCCD"/>
<path d="M7.66 24.4369L6.13594 23.6271L5.02215 25.7212C5.00683 25.75 4.99922 25.7823 5.00006 25.8149C5.00091 25.8475 5.01018 25.8793 5.02697 25.9072C5.04376 25.9352 5.0675 25.9583 5.09588 25.9743C5.12425 25.9904 5.1563 25.9988 5.1889 25.9988H6.71611C6.75037 25.9988 6.78399 25.9895 6.81337 25.9718C6.84274 25.9542 6.86677 25.9289 6.88287 25.8987L7.66 24.4369Z" fill="#F8CD50"/>
<path d="M9.57807 18.8655L6.84583 24.004L6.89805 24.0323L7.71672 24.4715C7.78734 24.5091 7.86805 24.5232 7.94721 24.5119C8.02638 24.5006 8.0999 24.4644 8.1572 24.4086C9.90528 22.7618 11.9642 22.2471 12.7778 22.1005C12.8908 22.0806 12.9977 22.0352 13.0905 21.9678C13.1833 21.9005 13.2595 21.8128 13.3133 21.7116L13.6701 21.0408L9.63218 18.8938L9.57807 18.8655Z" fill="url(#paint0_linear)"/>
<path d="M21.1319 2.3166L18.9842 1.1745L18.5217 2.04476L21.3534 3.54932L21.4685 3.29447C21.5474 3.11924 21.5564 2.92054 21.4939 2.73886C21.4314 2.55718 21.3019 2.40617 21.1319 2.3166V2.3166Z" fill="url(#paint1_linear)"/>
<path d="M21.5668 3.66448L19.8464 2.74954L10.9021 19.5703L13.6903 21.0522C13.736 21.0764 13.7861 21.0911 13.8376 21.0953C13.8891 21.0994 13.9409 21.0929 13.9898 21.0762C14.0387 21.0595 14.0836 21.033 14.1219 20.9982C14.1601 20.9634 14.1908 20.9212 14.212 20.8741L21.7335 4.15216C21.7727 4.06487 21.7773 3.96597 21.7463 3.87544C21.7154 3.78492 21.6512 3.70952 21.5668 3.66448V3.66448Z" fill="url(#paint2_linear)"/>
<path d="M6.13594 23.6271L5.02215 25.7212C5.00683 25.75 4.99922 25.7823 5.00006 25.8149C5.00091 25.8475 5.01018 25.8793 5.02697 25.9072C5.04376 25.9352 5.0675 25.9583 5.09588 25.9743C5.12425 25.9904 5.1563 25.9988 5.1889 25.9988H5.7867L6.847 24.0046L6.13594 23.6271Z" fill="url(#paint3_linear)"/>
<path d="M19.6885 25.1637H7.99627C7.96201 25.1637 7.92839 25.173 7.89902 25.1906C7.86964 25.2083 7.84562 25.2335 7.82952 25.2638L7.58599 25.7225C7.57067 25.7513 7.56306 25.7835 7.56391 25.8161C7.56475 25.8487 7.57402 25.8805 7.59081 25.9085C7.6076 25.9364 7.63134 25.9595 7.65972 25.9756C7.6881 25.9916 7.72015 26 7.75275 26H19.4444C19.4786 26 19.5122 25.9907 19.5416 25.9731C19.571 25.9555 19.595 25.9302 19.6111 25.9L19.8553 25.4412C19.8706 25.4125 19.8782 25.3802 19.8774 25.3476C19.8765 25.315 19.8673 25.2832 19.8505 25.2553C19.8337 25.2273 19.8099 25.2042 19.7816 25.1882C19.7532 25.1721 19.7211 25.1637 19.6885 25.1637V25.1637Z" fill="#F8CD50"/>
<path d="M7.82952 25.2625L7.58599 25.7213C7.57067 25.75 7.56306 25.7823 7.56391 25.8149C7.56475 25.8475 7.57402 25.8793 7.59081 25.9072C7.6076 25.9352 7.63134 25.9583 7.65972 25.9743C7.6881 25.9904 7.72015 25.9988 7.75275 25.9988H14.1662L14.611 25.1637H7.99627C7.96214 25.1636 7.92861 25.1727 7.89925 25.1901C7.86988 25.2075 7.84578 25.2325 7.82952 25.2625Z" fill="url(#paint4_linear)"/>
<defs>
<linearGradient id="paint0_linear" x1="13.6682" y1="21.689" x2="6.84583" y2="21.689" gradientUnits="userSpaceOnUse">
<stop offset="0.03" stop-color="#028484" stop-opacity="0.4"/>
<stop offset="1" stop-color="#028484" stop-opacity="0.1"/>
</linearGradient>
<linearGradient id="paint1_linear" x1="21.5327" y1="2.36191" x2="18.5217" y2="2.36191" gradientUnits="userSpaceOnUse">
<stop offset="0.03" stop-color="#028484" stop-opacity="0.6"/>
<stop offset="1" stop-color="#028484" stop-opacity="0.1"/>
</linearGradient>
<linearGradient id="paint2_linear" x1="21.7669" y1="11.9229" x2="10.9021" y2="11.9229" gradientUnits="userSpaceOnUse">
<stop stop-color="#043263" stop-opacity="0.3"/>
<stop offset="1" stop-color="#043263" stop-opacity="0"/>
</linearGradient>
<linearGradient id="paint3_linear" x1="5.3695" y1="24.3929" x2="6.38135" y2="25.4041" gradientUnits="userSpaceOnUse">
<stop stop-color="white" stop-opacity="0.6"/>
<stop offset="1" stop-color="white" stop-opacity="0.1"/>
</linearGradient>
<linearGradient id="paint4_linear" x1="9.32149" y1="23.7592" x2="12.8636" y2="27.3013" gradientUnits="userSpaceOnUse">
<stop offset="0.01" stop-color="white" stop-opacity="0.3"/>
<stop offset="1" stop-color="white" stop-opacity="0.1"/>
</linearGradient>
</defs>
</svg>
