<svg xmlns="http://www.w3.org/2000/svg" width="27" height="25" viewBox="0 0 27 25">
  <defs>
    <linearGradient id="ico-star-a" x1="30.148%" x2="76.395%" y1="14.654%" y2="97.435%">
      <stop offset="0%" stop-color="#192647"/>
      <stop offset="0%" stop-color="#192647" stop-opacity=".5"/>
      <stop offset="100%" stop-color="#192647" stop-opacity="0"/>
    </linearGradient>
    <linearGradient id="ico-star-b" x1="99.995%" x2=".003%" y1="49.991%" y2="49.991%">
      <stop offset="0%" stop-color="#02A5A5" stop-opacity=".8"/>
      <stop offset="100%" stop-color="#02A5A5" stop-opacity="0"/>
    </linearGradient>
  </defs>
  <g fill="none">
    <path fill="url(#ico-star-a)" d="M14.7934783,2.98340961 L18.2889016,10.0686499 L26.104119,11.201373 C26.1686655,11.2107498 26.2223183,11.2559038 26.2425796,11.3179011 C26.2628409,11.3798983 26.2462086,11.4480222 26.1996568,11.4937071 L20.5440503,17.0062929 L21.8792906,24.7906178 C21.8902229,24.8549348 21.863744,24.9198884 21.8109616,24.9582316 C21.7581791,24.9965747 21.6882214,25.0016761 21.6304348,24.9713959 L14.6395881,21.2963387 L7.6493135,24.9713959 C7.59152691,25.0016761 7.52156919,24.9965747 7.46878673,24.9582316 C7.41600427,24.9198884 7.3895254,24.8549348 7.40045767,24.7906178 L8.73569794,17.0062929 L3.08009153,11.4937071 C3.03356326,11.4481008 3.01687072,11.3800814 3.03700016,11.3181167 C3.05712959,11.256152 3.11060947,11.2109284 3.17505721,11.201373 L10.9908467,10.0686499 L14.4856979,2.98627002 C14.5140663,2.92742806 14.5733786,2.88979219 14.6386991,2.88917767 C14.7040196,2.88857805 14.7640212,2.92510506 14.7934783,2.98340961 Z"/>
    <path id="star-base" fill="#2DCCCD" d="M11.8186499,0.122997712 L15.3140732,7.20823799 L23.1292906,8.3409611 C23.1938372,8.35033792 23.2474899,8.3954919 23.2677512,8.45748917 C23.2880126,8.51948643 23.2713802,8.58761029 23.2248284,8.63329519 L17.569222,14.145881 L18.9044622,21.9302059 C18.9153945,21.9945229 18.8889156,22.0594765 18.8361332,22.0978197 C18.7833507,22.1361628 18.713393,22.1412642 18.6556064,22.110984 L11.6647597,18.4359268 L4.67448513,22.110984 C4.61669853,22.1412642 4.54674081,22.1361628 4.49395835,22.0978197 C4.44117589,22.0594765 4.41469702,21.9945229 4.42562929,21.9302059 L5.76086957,14.145881 L0.105263158,8.63329519 C0.0587348821,8.58768887 0.0420423496,8.51966951 0.0621717798,8.45770482 C0.0823012099,8.39574013 0.135781093,8.3505165 0.200228833,8.3409611 L8.01601831,7.20823799 L11.5108696,0.125858124 C11.5392379,0.0670161629 11.5985502,0.0293802866 11.6638707,0.028765767 C11.7291913,0.0281661507 11.7891928,0.0646931614 11.8186499,0.122997712 Z"/>
    <path fill="url(#ico-star-b)" d="M23.1292906,8.3409611 L15.3140732,7.20823799 L14.8135011,6.19393593 L6.86498856,20.9593822 L11.6641876,18.4359268 L18.6556064,22.110984 C18.713393,22.1412642 18.7833507,22.1361628 18.8361332,22.0978197 C18.8889156,22.0594765 18.9153945,21.9945229 18.9044622,21.9302059 L17.569222,14.145881 L23.2265446,8.63329519 C23.2731721,8.58737497 23.2896264,8.5189343 23.2689679,8.45683744 C23.2483095,8.39474058 23.1941344,8.34979694 23.1292906,8.3409611 Z"/>
  </g>
</svg>
