<svg xmlns="http://www.w3.org/2000/svg" width="24" height="24" viewBox="0 0 24 24">
  <path fill="#FFF" fill-rule="evenodd" d="M16.4518004,17.9471188 L20.8862063,13.4827553 C22.2958744,12.0635884 23.0822721,10.1936603 23.1004244,8.21737698 C23.1145564,6.67942844 22.6594082,5.21116515 21.8034469,3.96998804 L24,1.75857788 L22.2533565,0 L20.0787324,2.18935941 C18.818425,1.26237506 17.309711,0.774821983 15.7293623,0.801136692 C13.7870636,0.833420941 11.9400341,1.63382667 10.5285385,3.0550646 C10.2108119,3.37461776 6.82059118,6.78785479 6.09815303,7.51504227 L0.357267145,9.0484832 C-0.0322159558,9.15252376 -0.116277057,9.4675693 0.169652514,9.75227983 L4.48856569,14.0530292 C4.46517477,14.0753236 4.44141837,14.096887 4.4186366,14.1199124 C2.96133386,15.5870792 2.96133386,17.9741644 4.4186366,19.4413313 C5.87581751,20.9083763 8.24682786,20.9083763 9.7041306,19.4413313 C9.72691238,19.4183059 9.74847588,19.3943059 9.77077034,19.3709151 L14.1456024,23.8280907 C14.4281208,24.1158469 14.7453601,24.0338571 14.854274,23.6457151 L16.4518004,17.9471188 Z M5.00012012,11.0530305 L7.4130392,10.5776602 L13.5256213,16.7315254 L12.8594676,18.9653518 L5.00012012,11.0530305 Z"/>
</svg>
