<svg xmlns="http://www.w3.org/2000/svg" width="24" height="24" viewBox="0 0 24 24">
  <path fill="#FFF" d="M5.32104054,19.6789595 C2.24179832,18.7447568 0,15.8787194 0,12.5 C0,8.3579 3.3624,5 7.495,5 L16,5 L13,8 L7.4957,8 C5.0124,8 3,10.0147 3,12.5 C3,14.9802 5.0128,17 7.4957,17 L8,17 L5.32104054,19.6789595 Z M9,20 L12,17 L16.5043,17 C18.9876,17 21,14.9853 21,12.5 C21,10.1787663 19.2369487,8.26080604 16.9755182,8.02448178 L19.4132852,5.58671477 C22.1082089,6.72508497 24,9.39622342 24,12.5 C24,16.6421 20.6376,20 16.505,20 L9,20 Z M9,11 L18,11 L15,14 L6,14 L9,11 Z"/>
</svg>
