<svg xmlns="http://www.w3.org/2000/svg" width="24" height="24" viewBox="0 0 24 24">
  <path fill="#FFF" fill-rule="evenodd" d="M3,12 L10,19 L13,19 L4.5,10.5 L12.6408638,2.35913616 C12.8392093,2.16079074 13.2297506,2 13.5012308,2 L23.0044225,2 C23.5542648,2 24,2.44483697 24,2.9955775 L24,12.4987692 C24,12.7755913 23.8482757,13.1517243 23.6408638,13.3591362 L12.7058543,24.2941457 C12.3160217,24.6839783 11.6826544,24.6826544 11.295167,24.295167 L1.70483296,14.704833 C1.31556446,14.3155645 1.32097101,13.679029 1.70585426,13.2941457 L3,12 Z M18,10 C19.1045695,10 20,9.1045695 20,8 C20,6.8954305 19.1045695,6 18,6 C16.8954305,6 16,6.8954305 16,8 C16,9.1045695 16.8954305,10 18,10 Z"/>
</svg>
