<svg xmlns="http://www.w3.org/2000/svg" width="24" height="25" viewBox="0 0 24 25">
  <path fill="#FFF" d="M0.25651171,23.8023219 C0.391213295,23.95325 0.581472297,24.0517141 0.798820663,24.0524281 L6.94385853,24.0610343 C7.35075792,24.0617484 7.68000362,23.7297141 7.67929564,23.3192843 C7.67858767,22.9088922 7.2039835,22.4474641 7.00016118,22.2418922 L5.44593219,20.6742843 L9.96899902,16.15625 L7.83110042,14 L3.37428516,18.5841781 L1.82005616,17.0165703 C1.48369345,16.6773203 1.14233765,16.3164984 0.735438258,16.3158219 C0.328538864,16.3150703 -0.000706835507,16.6471422 1.13962802e-06,17.0575343 L0.0085341031,23.2553203 C0.00924207823,23.4745343 0.106868123,23.6664641 0.25651171,23.8023219 Z M23.7124873,0.258713568 C23.5777857,0.107785463 23.3875267,0.00932141098 23.1701784,0.00860735869 L17.0251405,1.14954017e-06 C16.6182411,-0.000712902747 16.2889954,0.331321411 16.2897034,0.74175115 C16.2904113,1.15214331 16.7650155,1.61357141 16.9688378,1.81914331 L18.5230668,3.38675115 L14,7.90478546 L16.1378986,10.0610355 L20.5947139,5.47685736 L22.1489429,7.0444652 C22.4853056,7.3837152 22.8266614,7.7445371 23.2335608,7.74521357 C23.6404602,7.7459652 23.9697059,7.41389331 23.9689979,7.00350115 L23.9604649,0.805715202 C23.9597569,0.58650115 23.8621309,0.394571411 23.7124873,0.258713568 Z"/>
</svg>
