<svg width="100" height="100" viewBox="0 0 100 100" fill="none" xmlns="http://www.w3.org/2000/svg">
<path d="M34.8091 72.6685L19.2785 64.4106L17.9062 66.9906C17.6992 67.38 17.5835 67.8114 17.568 68.2521C17.5524 68.6928 17.6375 69.1313 17.8167 69.5343C19.0994 72.4385 21.8875 80.1155 20.3942 89.2325C20.3444 89.5325 20.39 89.8406 20.5246 90.1133C20.6592 90.386 20.876 90.6095 21.1445 90.7524L24.3029 92.4272L27.4492 94.1213C27.7208 94.2656 28.0312 94.3199 28.3357 94.2764C28.6402 94.2329 28.923 94.0939 29.1433 93.8793C35.8667 87.5456 43.7857 85.5658 46.9151 85.0019C47.3494 84.9254 47.7606 84.7509 48.1174 84.4917C48.4743 84.2326 48.7675 83.8956 48.9747 83.5062L50.3469 80.9263L34.8091 72.6685Z" fill="#2DCCCD"/>
<path d="M80.7185 14.0941L57.7022 1.85257C57.3766 1.6794 56.9974 1.63655 56.6414 1.73274C56.2854 1.82893 55.9794 2.05693 55.7854 2.3705L18.6421 62.3171C18.5373 62.486 18.4683 62.6747 18.4394 62.8713C18.4105 63.068 18.4222 63.2686 18.474 63.4605C18.5257 63.6525 18.6163 63.8317 18.7401 63.9873C18.864 64.1428 19.0185 64.2712 19.194 64.3646L50.4149 80.9698C50.5903 81.0632 50.783 81.1196 50.9811 81.1355C51.1792 81.1514 51.3785 81.1265 51.5666 81.0623C51.7546 80.9981 51.9275 80.896 52.0745 80.7622C52.2216 80.6285 52.3396 80.466 52.4212 80.2848L81.3599 15.9697C81.5105 15.634 81.5281 15.2536 81.409 14.9055C81.29 14.5573 81.0432 14.2673 80.7185 14.0941V14.0941Z" fill="#1464A5"/>
<path d="M79.8853 13.6512L58.5269 2.29552L59.0908 1.38068C59.4781 0.752099 60.0903 0.29464 60.8029 0.101322C61.5155 -0.0919957 62.2749 -0.00665774 62.9268 0.339982L79.0455 8.91C79.6972 9.25653 80.1925 9.83821 80.4308 10.5368C80.6691 11.2354 80.6324 11.9985 80.3282 12.671L79.8853 13.6512Z" fill="#2DCCCD"/>
<path d="M27.2308 93.9882L21.369 90.8734L17.0852 98.9279C17.0263 99.0385 16.997 99.1626 17.0002 99.2879C17.0035 99.4133 17.0391 99.5356 17.1037 99.6431C17.1683 99.7506 17.2596 99.8395 17.3688 99.9012C17.4779 99.9629 17.6012 99.9953 17.7266 99.9952H23.6004C23.7322 99.9953 23.8615 99.9595 23.9745 99.8917C24.0875 99.8239 24.1799 99.7267 24.2418 99.6104L27.2308 93.9882Z" fill="#F8CD50"/>
<path d="M34.608 72.5595L24.0994 92.3231L24.3002 92.432L27.449 94.1213C27.7206 94.2656 28.031 94.3199 28.3355 94.2764C28.6399 94.2329 28.9227 94.0939 29.1431 93.8793C35.8665 87.5456 43.7855 85.5658 46.9148 85.0019C47.3492 84.9254 47.7604 84.7509 48.1172 84.4917C48.4741 84.2326 48.7672 83.8956 48.9744 83.5062L50.3467 80.9263L34.8161 72.6684L34.608 72.5595Z" fill="url(#paint0_linear)"/>
<path d="M79.0457 8.91001L70.7855 4.5173L69.0066 7.86448L79.8976 13.6512L80.3405 12.671C80.6437 11.9971 80.6786 11.2329 80.438 10.5341C80.1974 9.83529 79.6995 9.2545 79.0457 8.91001V8.91001Z" fill="url(#paint1_linear)"/>
<path d="M80.7184 14.0942L74.1015 10.5752L39.7004 75.2702L50.4245 80.9699C50.5999 81.0633 50.7926 81.1197 50.9907 81.1356C51.1888 81.1515 51.3881 81.1266 51.5761 81.0624C51.7642 80.9982 51.9371 80.8961 52.0841 80.7623C52.2312 80.6286 52.3492 80.4661 52.4308 80.2849L81.3598 15.9698C81.5104 15.6341 81.528 15.2537 81.4089 14.9056C81.2899 14.5574 81.0431 14.2674 80.7184 14.0942V14.0942Z" fill="url(#paint2_linear)"/>
<path d="M21.369 90.8734L17.0852 98.9279C17.0263 99.0385 16.997 99.1626 17.0002 99.2879C17.0035 99.4133 17.0391 99.5356 17.1037 99.6431C17.1683 99.7506 17.2596 99.8395 17.3688 99.9012C17.4779 99.9629 17.6012 99.9953 17.7266 99.9952H20.0258L24.1038 92.3255L21.369 90.8734Z" fill="url(#paint3_linear)"/>
<path d="M73.4944 96.7836H28.5241C28.3924 96.7835 28.2631 96.8192 28.1501 96.887C28.0371 96.9548 27.9447 97.0521 27.8828 97.1684L26.9462 98.9327C26.8872 99.0434 26.858 99.1674 26.8612 99.2928C26.8645 99.4181 26.9001 99.5405 26.9647 99.648C27.0293 99.7554 27.1206 99.8443 27.2297 99.906C27.3389 99.9677 27.4621 100 27.5875 100H72.5553C72.6871 100 72.8164 99.9644 72.9294 99.8966C73.0423 99.8288 73.1347 99.7315 73.1967 99.6152L74.1357 97.8509C74.1946 97.7402 74.2239 97.6162 74.2207 97.4908C74.2174 97.3655 74.1818 97.2431 74.1172 97.1357C74.0526 97.0282 73.9613 96.9393 73.8522 96.8776C73.743 96.8159 73.6197 96.7835 73.4944 96.7836V96.7836Z" fill="#F8CD50"/>
<path d="M27.8828 97.1636L26.9462 98.9279C26.8872 99.0386 26.858 99.1626 26.8612 99.2879C26.8645 99.4133 26.9001 99.5357 26.9647 99.6431C27.0293 99.7506 27.1206 99.8395 27.2297 99.9012C27.3389 99.9629 27.4621 99.9953 27.5875 99.9952H52.2545L53.9656 96.7836H28.5241C28.3929 96.783 28.2639 96.8181 28.151 96.885C28.038 96.9519 27.9454 97.0482 27.8828 97.1636Z" fill="url(#paint4_linear)"/>
<defs>
<linearGradient id="paint0_linear" x1="50.3394" y1="83.4191" x2="24.0994" y2="83.4191" gradientUnits="userSpaceOnUse">
<stop offset="0.03" stop-color="#028484" stop-opacity="0.4"/>
<stop offset="1" stop-color="#028484" stop-opacity="0.1"/>
</linearGradient>
<linearGradient id="paint1_linear" x1="80.5874" y1="9.08427" x2="69.0066" y2="9.08427" gradientUnits="userSpaceOnUse">
<stop offset="0.03" stop-color="#028484" stop-opacity="0.6"/>
<stop offset="1" stop-color="#028484" stop-opacity="0.1"/>
</linearGradient>
<linearGradient id="paint2_linear" x1="81.4881" y1="45.8572" x2="39.7004" y2="45.8572" gradientUnits="userSpaceOnUse">
<stop stop-color="#043263" stop-opacity="0.3"/>
<stop offset="1" stop-color="#043263" stop-opacity="0"/>
</linearGradient>
<linearGradient id="paint3_linear" x1="18.4212" y1="93.8188" x2="22.3129" y2="97.7081" gradientUnits="userSpaceOnUse">
<stop stop-color="white" stop-opacity="0.6"/>
<stop offset="1" stop-color="white" stop-opacity="0.1"/>
</linearGradient>
<linearGradient id="paint4_linear" x1="33.6211" y1="91.3816" x2="47.2446" y2="105.005" gradientUnits="userSpaceOnUse">
<stop offset="0.01" stop-color="white" stop-opacity="0.3"/>
<stop offset="1" stop-color="white" stop-opacity="0.1"/>
</linearGradient>
</defs>
</svg>
