<svg width="25px" height="25px" viewBox="0 0 25 25" version="1.1" xmlns="http://www.w3.org/2000/svg" xmlns:xlink="http://www.w3.org/1999/xlink"><g transform="translate(-1437.000000, -361.000000)" fill="#FFFFFF"><g id="card-a" transform="translate(353.000000, 346.000000)"><path d="M1106.24823,35.3251562 C1103.95718,38.1755967 1100.44165,40 1096.5,40 C1089.91775,40 1084.52378,34.9123834 1084.03594,28.4550045 L1086.89429,27.9353033 C1087.1219,33.0437041 1091.33545,37.1153846 1096.5,37.1153846 C1099.64562,37.1153846 1102.43845,35.6048786 1104.19271,33.2696329 L1102.26923,31.3461538 L1109,30.3846154 L1108.03846,37.1153846 L1106.24823,35.3251562 Z M1086.75177,19.6748438 C1089.04282,16.8244033 1092.55835,15 1096.5,15 C1103.08115,15 1108.47441,20.0859124 1108.96382,26.5417509 L1106.09051,26.802961 C1105.73339,21.8179197 1101.57603,17.8846154 1096.5,17.8846154 C1093.35438,17.8846154 1090.56155,19.3951214 1088.80729,21.7303671 L1090.73077,23.6538462 L1084,24.6153846 L1084.96154,17.8846154 L1086.75177,19.6748438 Z" id="swap"></path></g></g></svg>