<svg xmlns="http://www.w3.org/2000/svg" width="24" height="24" viewBox="0 0 24 24">
  <path fill="#FFF" d="M9.71248731,14.2587136 C9.57778572,14.1077855 9.38752672,14.0093214 9.17017835,14.0086074 L3.02514049,14.0000011 C2.6182411,13.9992871 2.2889954,14.3313214 2.28970337,14.7417511 C2.29041135,15.1521433 2.76501552,15.6135714 2.96883784,15.8191433 L4.52306683,17.3867511 L0,21.9047855 L2.1378986,24.0610355 L6.59471386,19.4768574 L8.14894285,21.0444652 C8.48530557,21.3837152 8.82666137,21.7445371 9.23356076,21.7452136 C9.64046015,21.7459652 9.96970585,21.4138933 9.96899788,21.0035011 L9.96046491,14.8057152 C9.95975694,14.5865011 9.86213089,14.3945714 9.71248731,14.2587136 Z M14.2565117,9.8023219 C14.3912133,9.95325 14.5814723,10.0517141 14.7988207,10.0524281 L20.9438585,10.0610343 C21.3507579,10.0617484 21.6800036,9.72971405 21.6792956,9.31928431 C21.6785877,8.90889216 21.2039835,8.44746405 21.0001612,8.24189216 L19.4459322,6.67428431 L23.968999,2.15625 L21.8311004,0 L17.3742852,4.5841781 L15.8200562,3.01657026 C15.4836935,2.67732026 15.1423377,2.31649837 14.7354383,2.3158219 C14.3285389,2.31507026 13.9992932,2.64714216 14.0000011,3.05753431 L14.0085341,9.25532026 C14.0092421,9.47453431 14.1068681,9.66646405 14.2565117,9.8023219 Z"/>
</svg>
