<svg xmlns="http://www.w3.org/2000/svg" width="24" height="24" viewBox="0 0 24 24">
  <path fill="#FFF" fill-rule="evenodd" d="M12.6126981,1.46083756 L23.8702597,22.8883376 C24.2086038,23.5023376 23.862669,23.9999376 23.0960086,23.9999376 L0.904048228,23.9999376 C0.138169241,23.9999376 -0.208993512,23.5031376 0.129908777,22.8883376 L11.3874703,1.46083756 C11.7257029,0.846837562 12.2739075,0.845937562 12.6126981,1.46083756 Z M13.000017,15.9999876 L13.000017,9.99998756 L11.000017,7.99998756 L11.000017,15.9999876 L13.000017,15.9999876 Z M12.000017,17.9999876 C11.1715899,17.9999876 10.500017,18.6715604 10.500017,19.4999876 C10.500017,20.3284147 11.1715899,20.9999876 12.000017,20.9999876 C12.8284441,20.9999876 13.500017,20.3284147 13.500017,19.4999876 C13.500017,18.6715604 12.8284441,17.9999876 12.000017,17.9999876 Z"/>
</svg>
