<svg xmlns="http://www.w3.org/2000/svg" width="18" height="17" viewBox="0 0 18 17">
  <path fill="#F35E61" fill-rule="evenodd" stroke="#F35E61" d="M13.0012315,0.5 C14.246886,0.5 15.3764134,1.03738171 16.1933544,1.91155461 C16.9984558,2.77305849 17.498963,3.96252979 17.498963,5.27779802 C17.498963,10.9694529 9.26078305,16.0932925 9.26078305,16.0932925 C8.7392852,16.0932934 0.501037037,10.95271 0.501037037,5.88893107 C0.501037037,3.91947308 1.015268,2.75837329 1.80664564,1.91155461 C2.62358662,1.03738171 3.753114,0.5 4.99876852,0.5 C6.12836098,0.5 7.16214654,0.941917839 7.95430552,1.67597074 C8.37079777,2.06191266 8.72027102,2.52888954 8.98066682,3.05386294 C9.25782071,2.52255127 9.621192,2.05092118 10.0495525,1.66262306 C10.8510623,0.936074436 11.878993,0.5 13.0012315,0.5 Z"/>
</svg>
