<svg xmlns="http://www.w3.org/2000/svg" width="24" height="23" viewBox="0 0 24 23">
  <path fill="#FFF" fill-rule="evenodd" d="M4.02363546,7.5072382 L5.43578685,3.4221387 L5.46825697,3.4221387 L6.84783865,7.5072382 L4.02363546,7.5072382 Z M6.78299801,0.05018586 L10.9706474,11.9005157 L8.42234064,12.2894686 L7.46477092,9.4201702 L3.37443227,9.4201702 L2.44923307,12.0949921 L0.01447211,12.0949921 L4.26716135,0.05018586 L6.78299801,0.05018586 Z M23.7250697,0.05016597 L23.7250697,1.92151675 L17.6196912,9.858145 L23.531245,9.858145 L23.9188944,11.9873387 L14.1794522,11.9873387 L14.1794522,10.1806476 L20.4139143,2.22800366 L14.7770618,2.22800366 L14.3894124,0.05016597 L23.7250697,0.05016597 Z M15.3893028,5.0240178 L14.3932869,7.0135466 L10.4092231,7.0135466 L10.4092231,5.0240178 L15.3893028,5.0240178 Z" transform="translate(0 10)"/>
</svg>
