<svg width="12px" height="18px" viewBox="0 0 12 18" version="1.1" xmlns="http://www.w3.org/2000/svg" xmlns:xlink="http://www.w3.org/1999/xlink"> <g id="ico-idea" transform="translate(-379.000000, -626.000000)" fill="#88C5E4" fill-rule="nonzero"> <g id="banner" transform="translate(348.000000, 604.000000)"> <g id="Group-4" transform="translate(31.000000, 22.000000)"> <g id="Group-3"> <g id="Lightbulb"> <rect id="Rectangle-path" x="2.4" y="12" width="7.2" height="1"></rect> <rect id="Rectangle-path" x="2.4" y="13.6" width="7.2" height="1"></rect> <rect id="Rectangle-path" x="2.4" y="15.2" width="7.2" height="1"></rect> <polygon id="Shape" points="7.21766936 17.6 4 17.6 4 16 8.8 16"></polygon> <path d="M6,0 C4.14477963,0.00161415277 2.39446523,0.856819513 1.25819263,2.31685181 C0.121920016,3.7768841 -0.272724592,5.67780382 0.189054011,7.46666667 L2.25003486,11.2 L9.74996514,11.2 L11.810946,7.46666667 C12.2727246,5.67780382 11.87808,3.7768841 10.7418074,2.31685181 C9.60553477,0.856819513 7.85522037,0.00161415277 6,0 Z M8.24997909,10.08 L7.49998606,10.08 L8.72697465,6.72 L3.27302535,6.72 L4.50001394,10.08 L3.75002091,10.08 L2.25003486,5.97333333 L9.74996514,5.97333333 L8.24997909,10.08 Z" id="Shape"></path> </g> </g> </g> </g> </g> </svg>