<svg xmlns="http://www.w3.org/2000/svg" width="50" height="33" viewBox="0 0 50 33">
  <path fill="#2DCCCD" fill-rule="evenodd" d="M48.6309977,23.2873594 C48.6309977,26.0290784 47.7399524,28.3080981 45.9578351,30.124487 C44.1757177,31.9408758 41.6053947,32.8490566 38.2467889,32.8490566 C34.8881831,32.8490566 32.1807762,31.700979 30.124487,29.4047893 C28.1024692,27.1085997 27.07434,23.8014507 27.0400685,19.4832433 C27.0400685,13.3829185 28.8907011,8.65352414 32.5920217,5.29491836 C36.2933424,1.93631257 41.7766982,0.171357438 49.0422535,0 L49.0422535,6.2202439 C45.2381184,6.56295877 42.4107631,7.28264921 40.5601028,8.37933682 C38.7094424,9.47602442 37.5442293,11.2409796 37.0644285,13.6742552 L41.5882422,13.6742552 C46.283436,14.6681283 48.6309977,17.8724643 48.6309977,23.2873594 Z M21.5909292,23.2873594 C21.5909292,26.0290784 20.6998839,28.3080981 18.9177666,30.124487 C17.1013777,31.9408758 14.5139192,32.8490566 11.1553134,32.8490566 C7.79670765,32.8490566 5.10643623,31.700979 3.08441846,29.4047893 C1.06240069,27.1085997 0.0342714876,23.8014507 0,19.4832433 C0,13.3829185 1.85063257,8.65352414 5.55195323,5.29491836 C9.25327389,1.93631257 14.7366297,0.171357438 22.002185,0 L22.002185,6.2202439 C18.1980499,6.56295877 15.3706946,7.28264921 13.5200343,8.37933682 C11.6693739,9.47602442 10.5041608,11.2409796 10.02436,13.6742552 L14.5481737,13.6742552 C19.2433675,14.6681283 21.5909292,17.8724643 21.5909292,23.2873594 Z" opacity=".279"/>
</svg>
