<svg version="1.1" id="Capa_1" xmlns="http://www.w3.org/2000/svg" xmlns:xlink="http://www.w3.org/1999/xlink" x="0px" y="0px" viewBox="0 0 21 21" style="enable-background:new 0 0 21 21;" xml:space="preserve"><style type="text/css">.st0{fill:#FFFFFF;}</style><g id="icons"><path class="st0" d="M10.5,0.4C4.9,0.4,0.4,4.9,0.4,10.5s4.5,10.1,10.1,10.1s10.1-4.5,10.1-10.1l0,0C20.6,4.9,16.1,0.4,10.5,0.4z M8.4,15.2c-2.6,0-4.7-2.1-4.7-4.7s2.1-4.7,4.7-4.7c1.2,0,2.3,0.5,3.2,1.3l-1.3,1.3c-1.2-1-2.9-0.9-3.9,0.3s-0.9,2.9,0.3,3.9c0.5,0.4,1.2,0.7,1.8,0.7c1.2,0,2.2-0.7,2.6-1.8H8.4V9.4H13c0.1,0.3,0.1,0.7,0.1,1C13.1,13.1,11,15.2,8.4,15.2L8.4,15.2z M16.9,10.9v1.6h-1.2v-1.6H14V9.7h1.7V8h1.2v1.7h1.6v1.2H16.9z"/></g></svg>