<svg version="1.1" id="Modo_de_aislamiento" xmlns="http://www.w3.org/2000/svg" xmlns:xlink="http://www.w3.org/1999/xlink" x="0px" y="0px" viewBox="0 0 56 80" style="enable-background:new 0 0 56 80;" xml:space="preserve"><style type="text/css">.st0{fill:#FFFFFF;}</style><g><rect x="15.8" y="49.8" class="st0" width="24.4" height="4.9"/><rect x="15.8" y="57" class="st0" width="24.4" height="4.9"/><polygon class="st0" points="30.6,69.2 20.7,69.2 20.7,64.4 35.5,64.4 "/><path class="st0" d="M35.4,43.6H33l4-11H19.2l4,11h-2.4l-4.9-13.4h2.4h19.5h2.4L35.4,43.6z M28,10.8c-10.7,0-19.5,8.7-19.5,19.5c0,1.7,0.2,3.3,0.6,4.9l6.7,12.2h24.4l6.7-12.2c0.4-1.6,0.6-3.2,0.6-4.9C47.5,19.5,38.8,10.8,28,10.8"/></g></svg>