<svg width="18px" height="18px" viewBox="0 0 18 18" version="1.1" xmlns="http://www.w3.org/2000/svg" xmlns:xlink="http://www.w3.org/1999/xlink"> <g id="icon-history" transform="translate(0.000000, -6.000000)" fill="#FFFFFF"> <path d="M8.25,14.79675 L8.25,11.699925 L9.75,10.199925 L9.75,15.449925 L9.717825,15.449925 L7.9875,17.18025 L5.8635,17.18325 L8.25,14.79675 Z M1.71237735,9.71775202 C3.3481236,7.46490757 6.00298805,6 9,6 C13.9705627,6 18,10.0294373 18,15 C18,19.9705627 13.9705627,24 9,24 C4.95082495,24 1.52620323,21.3259694 0.395702804,17.6474761 L2.5467771,16.985607 C3.39465242,19.744477 5.96311871,21.75 9,21.75 C12.7279221,21.75 15.75,18.7279221 15.75,15 C15.75,11.2720779 12.7279221,8.25 9,8.25 C6.68629673,8.25 4.64448173,9.41409208 3.42829374,11.1885375 L5.25,12.75 L0,14.25 L0,8.25 L1.71237735,9.71775202 Z" id="icon-history"></path> </g> </svg>