<svg width="11px" height="17px" viewBox="0 0 11 17" version="1.1" xmlns="http://www.w3.org/2000/svg" xmlns:xlink="http://www.w3.org/1999/xlink"> <g id="icon-locl" transform="translate(-52.000000, -635.000000)" fill="#FFFFFF"> <g id="right-nav"> <g id="Group-6" transform="translate(0.000000, 508.000000)"> <g id="Group-3" transform="translate(0.000000, 80.000000)"> <path d="M61.7777778,54.0833333 L62.0044225,54.0833333 C62.5542648,54.0833333 63,54.5352005 63,55.0887693 L63,62.9945641 C63,63.549851 62.555163,64 62.0044225,64 L52.9955775,64 C52.4457352,64 52,63.5481328 52,62.9945641 L52,55.0887693 C52,54.5334823 52.444837,54.0833333 52.9955775,54.0833333 L53.2222222,54.0833333 L53.2222222,51.2788262 C53.2222222,48.9156957 55.1422559,47 57.5,47 C59.8625514,47 61.7777778,48.9108226 61.7777778,51.2788262 L61.7777778,54.0833333 Z M60.5555556,54.0833333 L60.5555556,51.4706093 C60.5555556,49.78114 59.1875367,48.4166667 57.5,48.4166667 C55.8158971,48.4166667 54.4444444,49.7839634 54.4444444,51.4706093 L54.4444444,54.0833333 L60.5555556,54.0833333 Z M55.0555556,58.3333333 L55.0555556,59.75 L58.7222222,59.75 L59.9444444,58.3333333 L55.0555556,58.3333333 Z" id="icon-lock"></path> </g> </g> </g> </g> </svg>