<svg width="26px" height="20px" id="icoProgress" viewBox="0 0 26 20" version="1.1" xmlns="http://www.w3.org/2000/svg" xmlns:xlink="http://www.w3.org/1999/xlink"><g id="icoPercent" fill="#5BBEEF" fill-rule="nonzero"><path d="M20.03367,2.39057239 C25.6902357,6.43097643 27.003367,14.3097643 22.962963,19.96633 L2.35690236,19.96633 C-0.774410774,15.5218855 -0.774410774,9.66329966 2.35690236,5.21885522 C6.4983165,-0.437710438 14.3771044,-1.64983165 20.03367,2.39057239 Z M23.1649832,11.4814815 C23.1649832,10.976431 22.7609428,10.4713805 22.1548822,10.4713805 C21.5488215,10.4713805 21.1447811,10.976431 21.1447811,11.4814815 C21.1447811,11.986532 21.5488215,12.4915825 22.1548822,12.4915825 C22.6599327,12.4915825 23.1649832,11.986532 23.1649832,11.4814815 Z M21.1447811,17.8451178 C21.6498316,17.8451178 22.1548822,17.4410774 22.1548822,16.8350168 C22.1548822,16.2289562 21.6498316,15.7239057 21.1447811,15.8249158 C20.6397306,15.8249158 20.1346801,16.2289562 20.1346801,16.8350168 C20.1346801,17.3400673 20.5387205,17.8451178 21.1447811,17.8451178 Z M19.1245791,7.23905724 L20.6397306,5.72390572 C18.6195286,3.4006734 15.6902357,2.08754209 12.6599327,2.08754209 C10.8417508,2.08754209 9.02356902,2.59259259 7.40740741,3.5016835 C2.35690236,6.32996633 0.63973064,12.7946128 3.56902357,17.8451178 L6.09427609,17.8451178 C3.26599327,14.3097643 3.77104377,9.05723906 7.30639731,6.12794613 C10.8417508,3.1986532 16.1952862,3.7037037 19.1245791,7.23905724 Z M14.6801347,14.4107744 L18.9225589,9.36026936 L17.9124579,8.35016835 L12.8619529,12.5925926 C12.7609428,12.5925926 12.7609428,12.5925926 12.6599327,12.5925926 C11.4478114,12.5925926 10.5387205,13.5016835 10.5387205,14.7138047 C10.5387205,15.9259259 11.4478114,16.8350168 12.6599327,16.8350168 C13.8720539,16.8350168 14.7811448,15.9259259 14.7811448,14.7138047 C14.7811448,14.6127946 14.7811448,14.6127946 14.6801347,14.4107744 Z" id="Shape"></path></g></svg>