<svg xmlns="http://www.w3.org/2000/svg" width="302" height="111" viewBox="0 0 302 111">
  <g fill="none">
    <path id="ico-bbva" fill="#FFF" d="M240.403417,53.7342707 C240.591983,53.3762902 240.963959,53.1523683 241.369449,53.152 L250.508263,53.152 C251.129205,53.152 251.521805,53.8119805 251.228644,54.3566854 L221.511844,109.979193 C221.098251,110.749293 219.995951,110.749293 219.584568,109.979193 L189.867768,54.3566854 C189.573871,53.810139 189.969785,53.1501585 190.587412,53.1501585 L199.711127,53.1501585 C200.11809,53.1501585 200.488224,53.3744488 200.679737,53.732061 L219.558051,89.642439 C219.968698,90.4199049 221.131029,90.4199049 221.539098,89.642439 L240.403417,53.7342707 Z M251.111159,101.650622 C250.920751,102.006024 250.548407,102.231788 250.143654,102.231788 L241.002998,102.231788 C240.383161,102.231788 239.989456,101.572544 240.281512,101.025998 L270.001259,45.4049634 C270.414851,44.6352317 271.517888,44.6352317 271.928166,45.4049634 L301.647176,101.027839 C301.938127,101.574017 301.543317,102.231788 300.924585,102.231788 L291.801607,102.231788 C291.394276,102.231788 291.02451,102.008971 290.833734,101.650622 L271.956524,65.7417171 C271.545141,64.9653561 270.382441,64.9653561 269.974005,65.7417171 L251.111159,101.650622 Z M122.209456,79.6392415 C122.209456,79.6392415 131.219,82.2032951 131.219,93.3349415 C131.219,104.734337 124.085171,110.557044 110.554466,110.557044 L83.5177317,110.557044 C82.9155732,110.557044 82.4242707,110.066478 82.4242707,109.463215 L82.4242707,54.241778 C82.4242707,53.6388829 82.9159415,53.1486854 83.5177317,53.1486854 L111.794876,53.1486854 C121.634551,53.1486854 128.6067,59.2185171 128.6067,68.1573488 C128.6067,73.4066244 126.145768,77.6703488 122.209456,79.6392415 Z M93.0137902,61.4488976 C92.4112634,61.4488976 91.9218024,61.9405683 91.9218024,62.541622 L91.9218024,75.3895122 C91.9218024,75.9960902 92.4112634,76.4862878 93.0137902,76.4862878 L109.782524,76.4826049 C115.975366,76.4826049 119.112483,73.860361 119.112483,68.9675927 C119.112483,64.0965537 115.964685,61.4488976 109.782524,61.4488976 L93.0137902,61.4488976 Z M110.009393,102.233998 C118.193593,102.233998 121.735095,99.9365878 121.734727,93.5165098 C121.734727,87.0960634 118.113673,84.8004951 110.009393,84.8004951 L93.0027415,84.8004951 C92.3998463,84.8004951 91.9107537,85.2884829 91.9107537,85.8917463 L91.9107537,101.14201 C91.9107537,101.744537 92.3998463,102.233998 93.0038463,102.233998 L110.009393,102.233998 Z M180.213712,79.6392415 C180.213712,79.6392415 189.225098,82.2032951 189.225098,93.3349415 C189.225098,104.734337 182.091268,110.557044 168.55909,110.557044 L141.523093,110.557044 C140.919093,110.557044 140.429632,110.066478 140.429632,109.463215 L140.429632,54.241778 C140.429632,53.6388829 140.919093,53.1486854 141.523093,53.1486854 L169.798763,53.1486854 C179.639176,53.1486854 186.611324,59.2185171 186.611324,68.1573488 C186.611324,73.4066244 184.151129,77.6703488 180.213712,79.6392415 Z M151.018415,61.4488976 C150.416624,61.4488976 149.924954,61.9405683 149.925322,62.541622 L149.925322,75.3895122 C149.925322,75.9960902 150.416624,76.4862878 151.018415,76.4862878 L167.787885,76.4826049 C173.980727,76.4826049 177.114898,73.860361 177.114898,68.9675927 C177.114898,64.0965537 173.96931,61.4488976 167.787885,61.4488976 L151.018415,61.4488976 Z M168.014385,102.233998 C176.196376,102.233998 179.741193,99.9365878 179.741193,93.5165098 C179.741193,87.0960634 176.120139,84.8004951 168.014385,84.8004951 L151.007366,84.8004951 C150.405944,84.8004951 149.916115,85.2884829 149.916115,85.8917463 L149.916115,101.14201 C149.916115,101.744537 150.405944,102.233998 151.007366,102.233998 L168.014385,102.233998 Z"/>
    <path id="ico-campus" fill="#49A5E6" d="M0.215819512,16.9665073 C0.272904878,6.18510732 6.37514634,0.0500878049 14.323639,0.0950195122 C20.4384024,0.128534146 24.222978,2.85426829 26.4242634,7.74777317 L21.7786195,10.5165976 C20.5293707,7.44982439 18.1844512,5.21797073 14.297122,5.19808293 C8.7929878,5.16677805 5.71332439,9.76380732 5.67391707,16.9495659 C5.63561463,24.5375 8.84049756,29.1698854 14.4761122,29.1989805 C18.494922,29.2218146 21.1263732,26.7947659 22.4135561,23.1221512 L27.1162854,25.3197537 C25.1672805,30.7229756 21.2173415,34.204078 14.4495951,34.168722 C6.10739756,34.1219488 0.156156098,28.0580098 0.215819512,16.9665073 Z M30.6058585,27.8223024 C30.6342171,22.6315854 34.9292463,19.4609537 45.7662585,18.2779976 L45.7699415,17.5694024 C45.7835683,15.395739 44.5225341,14.1888439 41.7702829,14.1741122 C38.7569122,14.1586439 36.4359317,15.4771317 34.2865756,17.2813976 L31.3785366,13.9395098 C33.8343122,11.6476244 37.1651512,9.6691561 42.493978,9.69714634 C48.4761561,9.73066098 51.0368951,12.762078 51.0070634,18.2628976 L50.9271439,33.7470268 L46.121661,33.7190366 L45.7010707,30.700878 C43.4629561,32.9953415 40.619,34.0423976 37.167361,34.0258244 C33.3673171,34.0055683 30.5852341,31.6856927 30.6058585,27.8223024 Z M45.7194854,27.1516415 L45.7478439,21.9631341 C38.2733439,22.9855146 35.8636049,24.6148415 35.8514512,26.9641805 C35.8407707,28.8277415 37.1036463,29.8107146 39.111578,29.8236049 C41.8623561,29.8368634 44.0518561,28.828478 45.7194854,27.1516415 Z M56.7399073,33.7787 L56.8625488,10.2643171 L61.7984073,10.2897293 L62.218261,13.6205683 C63.8869951,11.6796659 66.6038902,9.83157317 70.1851683,9.84925122 C74.071761,9.87208537 75.9415829,11.3894512 76.5396902,13.7004878 C78.2993927,11.801939 81.1035732,9.91112439 84.6406561,9.92732927 C89.3588537,9.95421463 91.3955122,12.8489951 91.372678,17.063 L91.2839195,33.9676341 L85.9105293,33.9381707 L85.9922902,18.409478 C86.0048122,15.8804122 85.2704366,14.589178 82.7380561,14.5762878 C80.5551854,14.5633976 78.7579171,15.7515098 76.7835,17.6058634 L76.6962146,33.8873463 L71.3257707,33.8586195 L71.4075317,18.3299268 C71.4200537,15.8004927 70.6860463,14.5111 68.1510878,14.4967366 C66.0116756,14.4842146 64.1731585,15.6734317 62.1980049,17.5263122 L62.112561,33.8077951 L56.7399073,33.7787 Z M97.0513829,43.2696024 L97.226322,10.4849244 L102.16218,10.5099683 L102.582402,13.5778463 C104.16201,11.6317878 106.5305,10.0488659 109.982139,10.0665439 C115.263456,10.0963756 119.129793,14.1553293 119.087071,22.3181683 C119.042876,30.480639 115.094778,34.4523073 109.764478,34.4213707 C106.621468,34.4062707 104.222778,33.4174049 102.487383,31.4544049 L102.428456,42.4995024 L97.0513829,43.2696024 Z M113.714417,22.3332683 C113.740198,17.4515488 111.659344,14.7339171 108.209546,14.713661 C105.981376,14.701139 104.185212,15.9371293 102.559568,17.6132293 L102.50948,27.2407683 C104.376356,29.1139049 105.986532,30.0994561 108.213229,30.1101366 C111.535229,30.1289195 113.684585,27.7906293 113.714417,22.3332683 Z M123.607863,27.7541683 L123.6992,10.6300317 L129.071485,10.6572854 L128.987883,26.3207732 C128.973888,28.8030659 129.971593,30.0508415 132.461251,30.0655732 C134.774866,30.0773585 136.748178,28.8457878 138.766054,26.9932756 L138.851498,10.7117927 L144.224151,10.7419927 L144.100037,34.2552707 L139.165651,34.2283854 L138.746534,30.9439512 C137.031027,32.7964634 134.227215,34.6898561 130.42938,34.6688634 C126.191437,34.6449244 123.58282,32.4145439 123.607863,27.7541683 Z M148.577371,31.0419171 L150.649017,27.3685659 C152.735395,29.2004537 155.611024,30.5896537 158.623659,30.6077 C161.50739,30.6231683 163.258254,29.7024366 163.267461,28.0605878 C163.277405,26.1513585 161.928717,25.4806976 158.088161,24.6586683 C153.201654,23.6119805 149.453907,22.2614512 149.481529,17.2029512 C149.502522,13.0316683 152.925066,10.3018829 158.031444,10.3295049 C162.181366,10.3527073 164.970815,11.5647585 167.406334,13.3535561 L165.508154,17.2029512 C163.334859,15.5927756 160.893815,14.6477366 158.405998,14.6348463 C155.783017,14.6219561 154.512039,15.5890927 154.504673,17.0092293 C154.497307,18.5623195 155.759078,19.2786488 159.205193,20.0520634 C164.395541,21.1455244 168.365368,22.4102415 168.335905,27.3777732 C168.310861,32.5254 163.886929,34.8055 158.562154,34.7771415 C154.106917,34.7528341 150.794124,33.0491122 148.577371,31.0419171 Z"/>
  </g>
</svg>
