<svg xmlns="http://www.w3.org/2000/svg" xmlns:xlink="http://www.w3.org/1999/xlink" width="110" height="91" viewBox="0 0 110 91">
  <defs>
    <path id="mobile-horizontal-rotate-a" d="M62.991453,94.0842491 L62.991453,87.7418261 L103.5727,87.7418261 L103.5727,47.4487858 L62.991453,47.4487858 L62.991453,40.3601954 L106.46383,40.3601954 C108.315021,40.3601954 109.899267,41.8812576 109.899267,43.74884 L109.899267,90.7513431 C109.899267,92.6078449 108.316695,94.0842491 106.46383,94.0842491 L62.991453,94.0842491 Z"/>
  </defs>
  <g fill="none" fill-rule="evenodd" transform="translate(0 -4)">
    <path fill="#FFF" d="M7.79352227,79.2877493 L52.2165992,79.2877493 L52.2165992,12.6180837 L7.79352227,12.6180837 L7.79352227,79.2877493 Z M29.6153846,90.9161793 C27.4635931,90.9161793 25.7186235,89.1959469 25.7186235,87.040036 C25.7186235,84.899242 27.4483957,83.1638926 29.6153846,83.1638926 C31.7675658,83.1638926 33.5121457,84.8841251 33.5121457,87.040036 C33.5121457,89.18083 31.7827632,90.9161793 29.6153846,90.9161793 L29.6153846,90.9161793 Z M55.5562404,5.64102564 L3.73598077,5.64102564 C1.67697115,5.64102564 0,7.38277066 0,9.41799786 L0,90.4242386 C0,92.461307 1.68955769,94.017094 3.73598077,94.017094 L55.5562404,94.017094 C57.6156202,94.017094 59.2307692,92.4594658 59.2307692,90.4242386 L59.2307692,71.9230769 L59.2307692,9.41799786 C59.2307692,7.38092949 57.6030337,5.64102564 55.5562404,5.64102564 L55.5562404,5.64102564 Z"/>
    <use fill="#FFF" opacity=".7" xlink:href="#mobile-horizontal-rotate-a"/>
    <path fill="#FFF" d="M107.998558,18.3447228 L103.728051,22.4691089 C100.48949,19.2303349 96.0007009,17.2247432 91.0399371,17.2247432 C84.9836795,17.2247432 79.6308673,20.2139372 76.3975818,24.7868768 L81.3573974,28.8674325 L67.2059933,32.748329 L67.2059933,17.2247432 L71.7988497,21.0033929 C76.1352693,15.1269972 83.1385944,11.3109962 91.0399371,11.3109962 C97.6753184,11.3109962 103.677392,14.0021496 107.998558,18.3447228 Z" transform="rotate(45 87.602 22.03)"/>
  </g>
</svg>
