<svg width="894px" height="325px" viewBox="0 0 894 325" version="1.1" xmlns="http://www.w3.org/2000/svg" xmlns:xlink="http://www.w3.org/1999/xlink"> <g id="type-picture-bg" transform="translate(-348.000000, -376.000000)" fill-rule="nonzero"> <g id="Group-3" transform="translate(348.000000, 376.000000)"> <path d="M359.827589,86.2549344 L292.707051,86.2549344 C284.363254,82.5317713 278.438908,74.0029429 278.438908,64.4493677 L278.438908,64.4464295 C278.438908,55.5780541 283.544679,48.434883 290.921259,44.5448878 L306.332498,44.5448878 C318.360119,44.5448878 328.110707,35.4431008 328.110707,24.2189122 L328.110707,20.3259756 C328.110707,9.10178697 318.360119,0 306.332498,0 L68.4121435,0 C56.3875758,0 46.6338198,9.10178697 46.6338198,20.3259756 L46.6338198,24.2189122 C46.6338198,35.4431008 56.3875758,44.5448878 68.4121435,44.5448878 L69.0548586,44.5448878 C77.3553958,48.1404649 82.7222049,56.328375 82.707539,65.3741961 L82.707539,65.3771343 C82.6732157,74.0584977 77.9501291,82.0435882 70.3585673,86.2549344 L22.1723535,86.2549344 C9.92647088,86.2549344 0,96.6392864 0,109.452149 L0,109.455199 C0,122.268052 9.92647088,132.652303 22.1723535,132.652303 L359.827589,132.652303 C372.073532,132.652303 382,122.268052 382,109.455199 L382,109.452149 C382,96.6392959 372.073532,86.2549344 359.827589,86.2549344" id="Shape" fill="#88C5E4" opacity="0.2"></path> <path d="M871.827589,243.254934 L804.707051,243.254934 C796.363254,239.531771 790.438908,231.002943 790.438908,221.449368 L790.438908,221.446429 C790.438908,212.578054 795.544679,205.434883 802.921259,201.544888 L818.332498,201.544888 C830.360119,201.544888 840.110707,192.443101 840.110707,181.218912 L840.110707,177.325976 C840.110707,166.101787 830.360119,157 818.332498,157 L580.412144,157 C568.387576,157 558.63382,166.101787 558.63382,177.325976 L558.63382,181.218912 C558.63382,192.443101 568.387576,201.544888 580.412144,201.544888 L581.054859,201.544888 C589.355396,205.140465 594.722205,213.328375 594.707539,222.374196 L594.707539,222.377134 C594.673216,231.058498 589.950129,239.043588 582.358567,243.254934 L534.172354,243.254934 C521.926471,243.254934 512,253.639286 512,266.452149 L512,266.455199 C512,279.268052 521.926471,289.652303 534.172354,289.652303 L871.827589,289.652303 C884.073532,289.652303 894,279.268052 894,266.455199 L894,266.452149 C894,253.639296 884.073532,243.254934 871.827589,243.254934" id="Shape" fill="#88C5E4" opacity="0.2"></path> <g id="Group" transform="translate(605.000000, 227.000000)"> <path d="M5.10667103,20.000005 L155.998091,20 L155.998091,30.19888 L5.10658103,30.198875 C3.28302745,30.2014287 1.59690083,29.2300407 0.684386069,27.6512212 C-0.22812869,26.0724017 -0.22812869,24.1264784 0.684386069,22.5476589 C1.59690083,20.9688394 3.28302745,19.9974514 5.10658103,20.000005 L5.10667103,20.000005 Z M240.89142,20.000005 L240.89151,20.000005 C242.715064,19.9974514 244.40119,20.9688394 245.313705,22.5476589 C246.22622,24.1264784 246.22622,26.0724017 245.313705,27.6512212 C244.40119,29.2300407 242.715064,30.2014287 240.89151,30.198875 L90,30.19888 L90,20 L240.89142,20.000005 Z" id="Combined-Shape" fill="#62D9DA"></path> <path d="M33.106671,5.02244285e-06 L183.998091,-1.86517468e-14 L183.998091,10.19888 L33.106581,10.198875 C31.2830274,10.2014287 29.5969008,9.23004069 28.6843861,7.65122118 C27.7718713,6.07240168 27.7718713,4.12647837 28.6843861,2.54765886 C29.5969008,0.968839355 31.2830274,-0.00254860541 33.106581,5.02244285e-06 L33.106671,5.02244285e-06 Z M268.89142,5.02244285e-06 L268.89151,5.02244285e-06 C270.715064,-0.00254860541 272.40119,0.968839355 273.313705,2.54765886 C274.22622,4.12647837 274.22622,6.07240168 273.313705,7.65122118 C272.40119,9.23004069 270.715064,10.2014287 268.89151,10.198875 L118,10.19888 L118,-1.77635684e-14 L268.89142,5.02244285e-06 Z" id="Combined-Shape" fill="#62D9DA"></path> <polygon id="Shape" fill="#FADE8E" points="149.775 78.427 161.198 82.095 149.775 85.77 146.097 97.197 142.426 85.77 131 82.095 142.426 78.427 146.097 67"></polygon> <polygon id="Shape" fill="#FADE8E" points="190.656 50.614 206.266 55.628 190.656 60.647 185.637 76.266 180.616 60.647 165 55.628 180.616 50.614 185.637 35"></polygon> </g> <path d="M45.467791,87.000005 L196.359211,87 L196.359211,97.19888 L45.467701,97.198875 C43.6441474,97.2014287 41.9580208,96.2300407 41.0455061,94.6512212 C40.1329913,93.0724017 40.1329913,91.1264784 41.0455061,89.5476589 C41.9580208,87.9688394 43.6441474,86.9974514 45.467701,87.000005 L45.467791,87.000005 Z M281.25254,87.000005 L281.25263,87.000005 C283.076184,86.9974514 284.76231,87.9688394 285.674825,89.5476589 C286.58734,91.1264784 286.58734,93.0724017 285.674825,94.6512212 C284.76231,96.2300407 283.076184,97.2014287 281.25263,97.198875 L130.36112,97.19888 L130.36112,87 L281.25254,87.000005 Z" id="Combined-Shape" fill="#62D9DA"></path> <path d="M17.106671,67.000005 L167.998091,67 L167.998091,77.19888 L17.106581,77.198875 C15.2830274,77.2014287 13.5969008,76.2300407 12.6843861,74.6512212 C11.7718713,73.0724017 11.7718713,71.1264784 12.6843861,69.5476589 C13.5969008,67.9688394 15.2830274,66.9974514 17.106581,67.000005 L17.106671,67.000005 Z M252.89142,67.000005 L252.89151,67.000005 C254.715064,66.9974514 256.40119,67.9688394 257.313705,69.5476589 C258.22622,71.1264784 258.22622,73.0724017 257.313705,74.6512212 C256.40119,76.2300407 254.715064,77.2014287 252.89151,77.198875 L102,77.19888 L102,67 L252.89142,67.000005 Z" id="Combined-Shape" fill="#62D9DA"></path> <polygon id="Shape" fill="#FADE8E" transform="translate(139.901000, 149.098500) scale(-1, 1) translate(-139.901000, -149.098500) " points="143.577 145.427 155 149.095 143.577 152.77 139.899 164.197 136.228 152.77 124.802 149.095 136.228 145.427 139.899 134"></polygon> <polygon id="Shape" fill="#FADE8E" transform="translate(100.367000, 122.633000) scale(-1, 1) translate(-100.367000, -122.633000) " points="105.39 117.614 121 122.628 105.39 127.647 100.371 143.266 95.35 127.647 79.734 122.628 95.35 117.614 100.371 102"></polygon> </g> </g></svg>